<?xml version="1.0" encoding="utf-8"?>
<!-- Generator: Adobe Illustrator 26.5.0, SVG Export Plug-In . SVG Version: 6.00 Build 0)  -->
<svg version="1.1" id="Camada_1" xmlns="http://www.w3.org/2000/svg" xmlns:xlink="http://www.w3.org/1999/xlink" x="0px" y="0px"
	 viewBox="0 0 966.6 264.9" style="enable-background:new 0 0 966.6 264.9;" xml:space="preserve">
<style type="text/css">
	.st0{fill:#FFFFFF;}
</style>
<path class="st0" d="M839.1,0.3c12.4,1.3,23,6.4,31.8,15.2c14.3,14.3,28.6,28.6,42.9,42.9c12.5,12.5,24.9,25,37.4,37.4
	c6.1,6.1,10.8,13.3,13.1,21.7c5.4,19.7,1.3,37.1-13.1,51.6c-25.1,25.4-50.5,50.6-75.9,75.9c-3.3,3.3-6.5,6.8-10.3,9.6
	c-7.3,5.4-15.4,8.9-24.5,9.9c-14.2,1.7-27-1.8-38.3-10.6c-1.8-1.4-3.5-3-5.1-4.6c-8.9-8.9-17.8-17.7-26.7-26.7
	c-0.8-0.8-1.6-1-2.8-0.9c-9.7,1.2-19.3,0.8-28.4-3.2c-6-2.7-11.2-6.4-14.9-11.8c-3-4.3-4.6-9-4.4-14.3c0.2-4.4,1.9-8.3,4.1-12.1
	c0.1-0.2,0.3-0.3,0.3-0.6c0.3-0.7,1.3-1.3,1-2c-0.1-0.6-0.9-1-1.4-1.6c-3.4-3.5-7-6.7-10.2-10.4c-6.6-7.7-10.5-16.5-11.8-26.5
	c-1.9-15.4,2.2-28.9,12.3-40.7c0.8-1,1.8-2,2.8-2.9c26.7-26.7,53.4-53.4,80.1-80.1c6.9-6.9,15-11.7,24.5-14c2.4-0.6,7.4-1.3,7.4-1.3
	s-0.1,0,2.4-0.1c2.4-0.1,2-0.1,2-0.1h1c0,0,1.1,0.1,2,0.1C837.5,0,838.3,0.2,839.1,0.3z M719.4,144.9L719.4,144.9
	c0.1,0.3,0.1,0.8,0.3,1.1c1.7,4.6,4.3,8.7,7.7,12.3c2.9,3,5.8,5.9,8.7,8.8c1.1,1.2,1,1,2.2,0.3c11.2-6,23.2-7.6,35.7-5.9
	c2.4,0.3,4.8,0.8,7.2,1.5c0.5,0.1,0.8,0.3,1-0.3c0.6-1.8,1.3-3.6,1.6-5.4c0.6-1.1,0.9-2.2,1.3-3.4c1-3.3,2-6.6,3.1-9.9
	c1.5-4.3,2.5-8.7,4.1-12.9c1-2.9,1.7-5.9,2.6-8.9c0.8-2.9,1.9-5.7,2.9-8.6c1.1-2.9,1.5-6.1,2.7-9c0.9-2.2,1.7-4.5,2.2-6.9
	c0.7-2.4,1.4-4.7,2.2-7.1c1.2-3.6,2.2-7.2,3.4-10.7c1.2-3.4,1.7-6.9,1.5-10.5c-0.2-3.8-1.8-6.8-4.9-9.1c-2-1.5-4.3-2.4-6.6-3.1
	c-2.3-0.7-4.6-1.2-7.1-1.5c-1.7-0.3-1.7-0.3-1.3-2c0.4-1.3,0.8-2.7,1.3-4c0.5-1.4,0.5-1.4,2-1.4c22.8,0,45.7,0,68.6,0
	c4.6,0,9.3,0.2,13.9,0.6c2.7,0.3,5.4,0.6,8.5,1c-0.5-0.6-0.8-0.9-1.2-1.3c-7.3-7.3-14.5-14.5-21.8-21.8c-0.9-0.9-1.8-1.8-2.9-2.6
	c-9.5-7.7-20.3-10.3-32.2-7.9c-7.5,1.5-13.8,5.2-19.2,10.5c-23.2,23.2-46.4,46.4-69.6,69.6c-0.3,0.3-0.8,0.6-1,1.1
	c-2.7,2.4-5.2,5.2-7.9,7.8c-8,7.9-11.8,17.5-11.5,28.8c0.1,3.6,0.6,7.1,2,10.5C719.2,144.7,719.2,144.8,719.4,144.9z M882.9,94.3
	c0.8-4.8,0.7-9.6-0.6-14.4c-0.8-2.9-2.3-5.6-4.5-7.8c-2.5-2.6-5.6-4.2-9-5.3c-4.9-1.7-10.1-2-15.2-2.3c-1.6-0.1-1.6,0-2.1,1.5
	c-2.2,6.8-4.3,13.7-6.4,20.6c-0.8,2.6-1.7,5-2.4,7.7c-0.3,0.4-0.4,1-0.6,1.5c-2,5.9-3.8,11.9-5.8,17.8c-3.4,10.4-6.7,20.8-10.1,31.2
	c-1.5,4.7-2.9,9.4-4.5,14c-2.7,8.5-5.5,17-8.2,25.5c-4.7,14.3-13.6,25.1-27,32c-0.3,0.1-0.6,0.2-0.7,0.6c0.1,0.1,0.1,0.2,0.1,0.3
	c7.6,7.6,15.1,15.4,23,22.8c8.4,7.8,18.6,10.8,30,9.4c8.7-1,16.1-4.8,22.2-11c26.3-26.3,52.5-52.5,78.8-78.8
	c7.1-7.1,10.8-15.5,11.2-25.4c0.5-4.9-0.6-9.6-2.1-14.2c-1.7-5.4-4.8-10.1-8.9-14.2c-5.7-5.7-11.5-11.5-17.2-17.2
	c-0.3-0.3-0.5-0.7-1-0.8c-0.2,0.1-0.2,0.3-0.2,0.4c-0.1,8.2-1.7,16.3-4.2,24.2c-1.7,5.4-3.4,10.8-5.2,16.1c-2,5.7-3.7,11.6-5.5,17.3
	c-0.3,0.8-0.7,1.5-0.6,2.4c-0.2,0.5-0.4,1-0.6,1.5c-1.8,5.6-3.6,11.2-5.4,16.8c-2.6,8-5.7,15.6-10.2,22.7
	c-5.9,9.2-14,15.8-24.6,19.2c-7,2.3-14.1,3.4-21.4,3.5c-8.5,0.2-17.1,0.1-25.6,0.1c-0.3,0-0.8,0.1-1.1-0.3c0.7-2.4,1.5-4.8,2.2-7.3
	c0.2-0.6,0.6-0.7,1.2-0.7c1.5,0,3.1,0,4.7-0.1c6.2-0.2,11.9-2.2,17-5.7c4.9-3.4,8.6-8,11.6-13.1c2-3.4,3.6-7,4.8-10.7
	c2-5.8,3.9-11.7,5.6-17.5c0.1-0.3,0.3-0.6,0.4-0.9c0.9-2.2,1.3-4.5,2-6.8c0.4-1.4,1.1-2.7,1.5-4.1c1.7-5,3-10.1,4.8-15.1
	c1.2-3.4,2.1-6.8,3.1-10.3c0.6-1.7,1.1-3.5,1.7-5.2c0.6-1.9,1.2-3.8,1.7-5.7C881.3,103.8,882.5,99.1,882.9,94.3z M0.1,115.4
	c0.8,0.6,1.9,0.2,2.7,0.2c12,0,23.9,0,35.9,0.1c4.9,0,9.8,0.3,14.6,1.3c8.7,1.7,14.3,6.6,16.2,15.5c1.4,6.6,1.5,13.3,0.1,19.9
	c-2,9.6-8.3,15-17.7,17.1c-4.8,1-9.5,1.5-14.4,1.5c-11.5,0-23,0-34.5,0c-1,0-2.1,0-3,0.1C0.1,152.6,0.1,134,0.1,115.4z M15.3,148.3
	c0,4.1,0,7.3,0,10.7c0,2.1,0,2.2,2.1,2.2c5.7,0,11.3,0,17,0c3.7-0.1,7.4-0.3,10.9-1.6c4.7-1.6,7.7-4.7,9-9.4
	c1.2-4.3,1.3-8.6,0.5-12.9c-1.2-6.5-4.8-10.5-11.2-11.5c-5.9-1-12-1-18-0.1c-5.9,1-9.2,4.7-10.1,10.7
	C15,140.4,15.4,144.7,15.3,148.3z M648.6,149.5c-0.6,0.1-0.5,0.7-0.6,1.2c-1.2,9.3-6.3,15.5-15.2,18.3c-4.8,1.5-9.6,2.1-14.5,2.2
	c-12.3,0.1-24.8,0.1-37.1,0.1c-2.4,0-2.4,0-2.4-2.4c0-14.5,0-28.9,0-43.5c0-2.6,0.1-5.2,0-7.8c0-1.4,0.5-1.7,1.7-1.7
	c14.4,0.1,28.8-0.2,43.2,0.3c3,0.1,5.9,0.6,8.8,1.3c9.8,2.3,15,8.7,15.6,18.7c-0.1,1.7-0.1,3.4,0.5,5c0,1.3,0,2.6,0,4
	c0,1.2-1.2,2.2,0,3.4C648.6,148.8,648.6,149.1,648.6,149.5z M593.4,147.8c0,4.3,0,7.8,0,11.4c0,1.9,0,2,2,2c5.7,0,11.3,0,17,0
	c3.5,0,7-0.5,10.5-1.5c5.1-1.5,8.4-4.9,9.6-10.1c0.9-4,1-7.9,0.5-11.9c-1-7.1-5-11-12-12.3c-3.8-0.7-7.6-0.3-11.4-0.5
	c-2,0-3.8,0.1-5.8,0.6c-5.7,1-9,4.4-10,10.1C593,139.9,593.6,144.2,593.4,147.8z M541.3,147.6c0.1,0.8,0.8,1,1.3,1.5
	c1.9,1.7,3.4,3.7,4.4,6c2.2,5.1,4.3,10.2,6.4,15.2c-0.6,0.9-1.3,0.7-1.9,0.7c-4.3,0-8.6-0.1-12.8,0.1c-1.6,0-2.3-0.6-2.8-2
	c-1.4-3.7-2.9-7.4-4.4-11.2c-2-4.5-5.3-7-10.3-7c-2.1,0-4.1-0.1-6.2-0.1c-2.1,0-4.3,0-6.4,0c-1.2,0-1.7-0.3-1.6-1.5
	c0.1-2.1,0.1-4.1,0-6.2c0-1.3,0.5-1.5,1.6-1.5c5,0,10,0,15.1,0c1.6,0,3.1-0.1,4.7-0.6c4-1.2,5.9-4.3,5.7-8.7
	c-0.2-3.6-2.8-6.2-6.6-6.7c-0.8-0.1-1.6-0.2-2.4-0.2c-6.3,0-12.4,0-18.7,0c-5.6-0.1-8.6,2.9-8.5,8.6c0,11.2,0,22.3,0,33.5
	c0,0.6,0,1.2,0,1.6c0,2,0,2.1-2,2.1c-4,0-7.8,0-11.7,0c-2,0-2,0-2-2.1c0-8.5,0-17,0-25.3c0-8.6,0-17.1,0-25.7c0-2.2,0-2.2,2.1-2.2
	c16.2,0,32.3,0,48.5,0c2.7,0,5.2,0.3,7.7,1.4c5.8,2.3,9.1,6.6,9.6,12.8C550.5,137.4,548,143.5,541.3,147.6z M418.5,114.6
	c6.2,0.2,12.2,0.1,18.1,1.3c9.5,2,14.9,7.1,16.5,16.7c1.4,7.8,1.3,15.7-0.3,23.5c-1.6,8.1-6.5,13.1-14.6,14.8
	c-4.1,0.8-8.3,1-12.4,1.2c-6.9,0.2-13.7,0.2-20.6-0.3c-2.7-0.2-5.3-0.6-7.9-1.3c-7.2-1.9-11.3-6.9-12.8-14
	c-1.7-8.3-1.9-16.6-0.2-24.9c1.7-8.8,7.2-14,15.9-15.7C406.1,114.7,412.4,114.8,418.5,114.6z M418.5,124.7c-3.7,0-7.4,0.1-11,1
	c-4.8,1.3-7.7,4.3-8.8,9.1c-1.3,5.1-1.2,10.3-0.3,15.5c1,6.2,4.7,9.9,10.9,11c6.4,1,12.8,1.2,19.1-0.1c5.6-1.2,9.1-4.5,10.2-10.1
	c1.2-5.2,1-10.6,0-15.8c-1.2-5.5-4.7-8.7-10.1-9.9C425.1,124.8,421.8,124.7,418.5,124.7z M356.2,132.4c-5,0-9.8,0-14.6,0
	c-0.6,0-1-0.1-1.3-0.8c-1.7-4.5-5.6-6.2-9.9-6.5c-6.2-0.6-12.4-0.7-18.6,0.3c-6.9,1.2-10,4.5-10.9,11.5c-0.6,4.2-0.6,8.4,0,12.4
	c1,7.7,4.7,11.4,12.4,12.3c5.6,0.7,11.2,0.8,16.7,0.1c4.5-0.6,8.6-1.9,10.6-6.5c0.2-0.6,0.7-0.8,1.3-0.8c4.9,0,9.9,0,15,0
	c-0.7,6.2-2.8,11.2-8.4,14.1c-3.8,2-7.9,2.8-12.1,3.1c-10.9,0.8-21.9,1.2-32.8-0.3c-1.9-0.2-3.8-0.8-5.7-1.4
	c-5.5-1.6-8.8-5.3-10.3-10.7c-0.7-2.4-1.2-4.9-1.4-7.3c-0.6-7.1-0.8-14.1,0.8-21c1.9-8.3,7.1-13,15.2-14.8c4.4-0.9,9.1-1.2,13.6-1.3
	c7.9-0.1,15.8-0.5,23.7,0.6c1.7,0.2,3.5,0.6,5.1,1.2C351.9,118.8,356,124.1,356.2,132.4z M259.2,154.5c-0.7,6.5-3.1,11.6-9.2,14.4
	c-3.6,1.6-7.4,2.4-11.3,2.8c-10.9,0.8-21.9,1-32.8-0.3c-2.4-0.3-4.8-0.9-7-1.9c-4.2-1.6-7-4.5-8.5-8.7c-1.4-3.6-2-7.3-2.2-11.2
	c-0.3-6.2-0.5-12.4,0.9-18.6c2-8.5,7.3-13.3,15.7-15c4.5-0.9,9.1-1.2,13.6-1.2c7.9-0.1,15.8-0.5,23.7,0.7c2.8,0.3,5.5,1,8,2.3
	c5.6,2.8,7.8,7.7,8.5,13.5c0.1,0.9-0.3,1.2-1,1.2c-4.5,0-9.1,0-13.7,0c-0.6,0-1-0.2-1.3-0.8c-1.7-4.5-5.6-6-9.9-6.4
	c-6.2-0.6-12.4-0.7-18.6,0.3c-6.7,1.2-9.9,4.7-10.8,11.3c-0.6,4.2-0.6,8.4-0.1,12.4c1,7.8,4.5,11.5,12.2,12.4
	c5.8,0.7,11.7,0.8,17.6,0c4.2-0.6,8-2,9.9-6.2c0.3-0.7,0.7-1,1.4-1C249.2,154.5,254.1,154.5,259.2,154.5z M122.3,156.1
	c0.6-2.9,1.7-5.3,2.4-7.9c0.3-1,1.2-0.9,2-0.9c3.5,0,6.9,0,10.3,0c0.9,0,1.9,0,2.7,0c0.6-0.8,0-1.4-0.1-1.9
	c-1.9-5.5-3.7-10.9-5.7-16.3c-1.4-3.7-4.2-5.1-7.9-4.2c-2.3,0.6-3.6,2.2-4.3,4.3c-2,5.6-4,11.2-6,16.7c-2.8,7.7-5.6,15.3-8.1,23.1
	c-0.6,1.6-1.3,2.1-3,2.1c-4.5-0.1-9.1,0-13.6,0c-0.7-0.7-0.1-1.3,0.1-1.9c6.5-17.2,13-34.3,19.5-51.5c0.6-1.5,1.3-2,2.8-2
	c6.4,0.1,12.8,0,19.2,0.1c1.6,0,3.1,0.1,4.7,0.5c5.2,1,8.6,4.2,10.6,9c1.7,4.1,3.3,8.3,4.8,12.4c3.8,10.1,7.7,20.3,11.4,30.5
	c0.3,0.8,0.8,1.6,0.7,2.9c-1.3,0-2.4,0-3.6,0c-3.4,0-6.7,0-10,0c-2.3,0-2.3,0-3.1-2.1c-0.6-1.6-1.2-3.1-1.6-4.8
	c-1.9-5.3-5.6-8.1-11.4-8c-3.3,0-6.5,0-9.8,0C124.3,156.1,123.3,156.1,122.3,156.1z"/>
</svg>
