<?xml version="1.0" encoding="UTF-8"?><svg id="Layer_1" xmlns="http://www.w3.org/2000/svg" viewBox="0 0 158.899 50.219"><path d="M147.472,25.328v5.432h11.427v4.169h-16.147V11.603h16.145v4.138h-11.413v5.287h9.762v4.301h-9.773Z" fill="#fff"/><path d="M119.018,15.765h-11.396v5.275h.482c2.942,0,5.885,.006,8.827-.007,.368-.002,.503,.09,.496,.481-.023,1.243-.009,2.487-.009,3.78h-9.798v5.451h11.406v4.194h-16.149V11.607h16.141v4.158Z" fill="#fff"/><path d="M75.779,30.155h-2.184c-1.82,0-3.64,.009-5.46-.008-.33-.003-.477,.103-.571,.41-.418,1.366-.851,2.728-1.297,4.085-.043,.13-.215,.307-.33,.309-1.576,.02-3.152,.014-4.79,.014,.413-1.175,.81-2.308,1.209-3.44,2.031-5.769,4.061-11.539,6.093-17.307,.267-.759,.569-1.508,.801-2.278,.097-.322,.252-.373,.542-.37,1.304,.012,2.609,.025,3.913-.006,.398-.01,.545,.142,.663,.486,1.058,3.082,2.128,6.161,3.199,9.239,1.551,4.455,3.107,8.909,4.66,13.364,.029,.082,.047,.168,.086,.314h-1.47c-1.092,0-2.184-.01-3.276,.007-.299,.005-.398-.1-.478-.385-.416-1.472-.864-2.936-1.309-4.431Zm-6.779-3.959h5.492c-.911-3.038-1.809-6.034-2.746-9.159-.937,3.124-1.835,6.119-2.747,9.159Z" fill="#fff"/><path d="M127.08,26.228v8.702h-4.631V11.574h.516c3.366,0,6.733-.016,10.099,.005,2.665,.017,4.541,1.328,5.726,3.665,.604,1.193,.883,2.491,.822,3.815-.14,3.059-1.943,6.053-5.165,6.925-.529,.143-1.089,.223-1.637,.232-1.728,.029-3.457,.011-5.186,.011h-.544Zm.023-4.324c.063,.019,.105,.042,.146,.042,1.683,.003,3.366,.027,5.047-.009,.592-.013,1.157-.223,1.638-.618,.984-.809,1.202-1.907,1.019-3.057-.185-1.162-.832-2.047-2.073-2.318-.423-.092-.858-.168-1.289-.175-1.379-.022-2.759-.009-4.138-.007-.115,0-.23,.021-.351,.033v6.107Z" fill="#fff"/><path d="M63.06,11.607v4.141h-11.412v5.466h9.795c0,1.364,.006,2.679-.012,3.993-.001,.09-.161,.21-.272,.258-.102,.044-.239,.011-.36,.011-2.866,0-5.733,0-8.599,0h-.578v9.463h-4.703V11.607h16.142Z" fill="#fff"/><path d="M97.459,17.287c-1.611-1.338-3.432-1.749-5.369-1.602-2.19,.166-3.673,1.637-3.699,3.86-.03,2.472-.013,4.944-.005,7.416,.007,2.086,1.543,3.575,3.516,3.819,2.065,.256,3.906-.286,5.595-1.562,.741,1.203,1.482,2.405,2.279,3.698-.596,.359-1.161,.748-1.767,1.055-1.485,.753-3.068,1.103-4.737,1.193-1.976,.107-3.845-.224-5.603-1.112-2.018-1.018-3.375-2.596-3.889-4.832-.08-.348-.123-.712-.124-1.068-.009-3.139,.013-6.279-.011-9.418-.022-2.985,1.926-5.418,4.494-6.513,1.161-.495,2.372-.762,3.645-.845,2.198-.144,4.294,.204,6.281,1.134,.589,.276,1.111,.696,1.707,1.077-.788,1.26-1.536,2.456-2.314,3.701Z" fill="#fff"/><path d="M139.558,45.951c.771-.601,1.276-.564,1.905,.126,.097-.09,.192-.184,.293-.27,.662-.559,1.56-.26,1.782,.594,.037,.144,.086,.29,.088,.436,.009,.664,.004,1.329,.004,2.023h-.637c0-.546,.009-1.087-.004-1.628-.006-.236,.007-.514-.11-.695-.13-.201-.401-.44-.604-.434-.345,.009-.648,.231-.647,.665,.001,.546,0,1.091,0,1.637,0,.148,0,.296,0,.465h-.705c0-.402,.003-.802,0-1.202-.003-.303-.029-.606-.018-.908,.015-.417-.236-.613-.583-.677-.294-.054-.679,.343-.693,.693-.023,.59-.018,1.181-.029,1.772-.002,.102-.026,.204-.043,.324h-.63v-3.244c.243,.043,.583-.198,.63,.325Z" fill="#fff"/><path d="M94.117,42.239h-.636c0-.558,.004-1.111-.002-1.665-.002-.179-.014-.36-.048-.535-.069-.358-.264-.614-.659-.604-.329,.008-.651,.419-.655,.802-.005,.65-.002,1.3-.002,1.979h-.637c0-.576,.005-1.147-.004-1.719-.002-.16-.053-.319-.072-.48-.042-.369-.25-.579-.615-.584-.312-.004-.667,.425-.672,.79-.009,.606-.003,1.213-.005,1.819,0,.057-.018,.114-.03,.186h-.622v-3.229h.535c.016,.088,.033,.184,.039,.215,.334-.113,.667-.322,.99-.308,.316,.013,.623,.252,.934,.392-.009,.045-.018,.089-.028,.134,.146-.122,.279-.265,.44-.362,.796-.481,1.669-.02,1.737,.953,.05,.721,.01,1.448,.01,2.214Z" fill="#fff"/><path d="M74.543,49.541c1.166,.477,2.046,.09,1.888-1.027-.838,.522-1.571,.505-2-.076-.578-.784-.527-1.837,.101-2.465,.497-.497,1.176-.696,1.878-.118,.224-.113,.41-.208,.598-.303,0,1.284,.024,2.47-.011,3.654-.015,.497-.378,.85-.838,.942-.456,.091-.953,.09-1.414,.016-.477-.077-.483-.188-.202-.623Zm1.918-2.308c0-.106,.008-.213-.001-.318-.037-.409-.232-.727-.635-.832-.394-.103-.7,.104-.925,.418-.275,.384-.23,1.258,.101,1.598,.115,.119,.298,.213,.461,.237,.645,.094,.999-.31,.999-1.103Z" fill="#fff"/><path d="M60.17,39.213c0-.499,.014-.954-.005-1.408-.012-.291,.117-.367,.378-.363,.235,.004,.361,.062,.36,.334-.009,1.469-.004,2.938-.004,4.438h-.608c-.016-.085-.034-.181-.053-.281-1,.659-1.825,.569-2.334-.58-.297-.671-.087-1.738,.398-2.087,.637-.459,1.021-.554,1.869-.053Zm.012,1.383s-.008,0-.012,0c0-.106,0-.212,0-.317-.004-.404-.288-.794-.655-.845-.414-.057-.72,.111-.911,.501-.226,.462-.23,.916,.004,1.367,.163,.314,.411,.511,.787,.489,.373-.022,.614-.248,.734-.57,.071-.188,.038-.415,.052-.624Z" fill="#fff"/><path d="M107.952,48.882h-.595c-.023-.097-.046-.2-.072-.309-1.041,.71-2.058,.441-2.355-.672-.262-.984-.034-2.072,1.115-2.317,.355-.076,.761,.088,1.18,.148,0-.388,.009-.864-.003-1.34-.008-.298,.187-.34,.385-.289,.131,.034,.33,.184,.331,.285,.021,1.483,.015,2.966,.015,4.494Zm-.651-1.625c-.026-.008-.051-.016-.077-.024,0-.091,0-.181,0-.272-.003-.44-.285-.817-.664-.89-.38-.073-.813,.171-.945,.589-.083,.264-.133,.559-.106,.832,.041,.421,.252,.782,.681,.919,.327,.105,.658,.002,.829-.293,.148-.256,.192-.572,.282-.861Z" fill="#fff"/><path d="M116.962,48.881h-.593c-.024-.104-.048-.208-.077-.333-.505,.442-1.039,.586-1.625,.275-.576-.305-.798-.823-.799-1.454-.002-1.025,.305-1.559,1.162-1.759,.364-.085,.782,.06,1.229,.106,0-.366-.02-.842,.015-1.314,.008-.111,.189-.263,.317-.299,.202-.056,.378,.001,.376,.294-.009,1.48-.004,2.961-.004,4.483Zm-.692-1.522c-.015-.211-.024-.332-.032-.452-.027-.432-.29-.762-.667-.834-.369-.071-.777,.161-.935,.552-.176,.432-.191,.864,.027,1.295,.155,.305,.388,.561,.721,.496,.278-.054,.575-.238,.761-.453,.134-.154,.099-.455,.124-.604Z" fill="#fff"/><path d="M95.756,41.997c0,.472-.005,.895,.002,1.318,.005,.291-.192,.341-.392,.284-.13-.037-.321-.191-.322-.295-.021-1.424-.014-2.848-.014-4.303h.611c.016,.101,.033,.212,.051,.33,1.007-.736,1.58-.485,2.066-.006,.575,.567,.579,1.82,.093,2.417-.554,.68-1.224,.777-2.094,.254Zm-.082-1.389c.028,.009,.055,.018,.083,.028,0,.121,.006,.242-.001,.363-.026,.425,.266,.636,.587,.759,.331,.127,.663,.02,.903-.253,.325-.37,.34-1.287,.047-1.694-.338-.469-.943-.543-1.301-.093-.186,.233-.217,.59-.317,.89Z" fill="#fff"/><path d="M145.109,48.465c-.017,.163-.03,.279-.044,.41h-.525v-.845c0-1.137,.02-2.275-.01-3.412-.012-.457,.131-.618,.617-.49v1.743c.459-.118,.896-.329,1.321-.305,.305,.017,.657,.294,.873,.552,.534,.638,.405,1.929-.189,2.481-.592,.55-1.282,.518-2.044-.133Zm1.923-1.217c-.012-.003-.024-.005-.036-.008,0-.09,.009-.182-.001-.271-.046-.406-.412-.845-.762-.895-.405-.059-.768,.113-.871,.477-.116,.409-.134,.872-.079,1.296,.051,.393,.405,.565,.795,.586,.397,.021,.646-.228,.806-.543,.097-.19,.102-.426,.149-.642Z" fill="#fff"/><path d="M78.831,39.26v-1.769h.603v4.732h-.483c-.016-.111-.033-.237-.051-.362-1.262,.893-2.132,.557-2.5-.902-.176-.699,.073-1.39,.695-1.83,.544-.385,1.125-.33,1.736,.131Zm.096,1.411l-.101-.045c0-.136,.017-.276-.003-.409-.063-.41-.284-.705-.703-.779-.396-.069-.781,.101-.875,.465-.11,.425-.147,.926-.029,1.341,.168,.596,.864,.754,1.295,.318,.217-.22,.283-.59,.417-.891Z" fill="#fff"/><path d="M87.266,48.87h-.492c-.016-.111-.034-.234-.055-.374-1.009,.784-1.868,.687-2.383-.495-.339-.778-.179-1.57,.502-2.154,.567-.486,1.179-.396,1.813,.036v-1.753h.615v4.74Zm-.612-1.633c0-.121,.02-.245-.004-.361-.082-.409-.28-.74-.729-.797-.39-.05-.702,.12-.877,.48-.212,.435-.221,.888-.036,1.332,.227,.545,.695,.689,1.209,.396,.416-.237,.451-.633,.436-1.049Z" fill="#fff"/><path d="M88.816,42.202c-.55,.178-.767-.054-.899-.552-.206-.778-.238-.769-1.004-.769-.804,0-.843-.01-1.057,.818-.127,.491-.343,.654-.849,.501,.49-1.447,.971-2.896,1.489-4.331,.039-.108,.356-.17,.535-.155,.125,.01,.297,.168,.343,.297,.41,1.147,.798,2.303,1.192,3.456,.082,.24,.163,.48,.249,.735Zm-1.925-3.737c-.206,.633-.4,1.229-.597,1.835h1.212c-.211-.631-.408-1.217-.615-1.835Z" fill="#fff"/><path d="M93.514,44.359h2.409v.516h-1.77v1.367h1.671v.535h-1.675v1.56h1.932v.529h-2.567v-4.507Z" fill="#fff"/><path d="M122.788,48.858c0-1.407-.006-2.782,.011-4.157,.002-.118,.16-.332,.248-.333,.537-.011,1.091-.048,1.607,.067,.76,.17,.98,.574,.954,1.436-.016,.538-.464,1.069-1.047,1.192-.348,.073-.708,.093-1.114,.144v1.652h-.66Zm.656-2.258c.563,.031,1.13,.087,1.404-.439,.132-.254,.121-.723-.034-.956-.317-.478-.872-.316-1.37-.294v1.689Z" fill="#fff"/><path d="M118.922,41.61c.045,.174,.082,.316,.119,.457-.972,.522-2.341,.284-2.981-.492-.63-.763-.643-2.256,.006-3.109,.54-.709,1.889-1.156,2.989-.592-.038,.136-.078,.276-.129,.455-.834-.113-1.748-.346-2.316,.525-.236,.362-.39,.879-.348,1.302,.114,1.133,.746,1.956,2.658,1.452Z" fill="#fff"/><path d="M91.214,47.433c-.038,1.152-.988,1.625-1.797,1.548-.847-.081-1.496-.933-1.391-1.884,.124-1.128,.864-1.608,1.772-1.562,.97,.049,1.526,.836,1.417,1.898Zm-.562-.084c-.11-.338-.161-.587-.269-.808-.155-.317-.414-.491-.793-.476-.357,.014-.64,.17-.714,.498-.088,.391-.166,.827-.079,1.205,.156,.675,.898,.926,1.341,.479,.242-.245,.358-.615,.514-.898Z" fill="#fff"/><path d="M74.381,40.613c.064,1.168-.878,1.754-1.64,1.729-.897-.029-1.579-.756-1.555-1.735,.027-1.122,.714-1.722,1.668-1.717,.83,.004,1.577,.556,1.528,1.722Zm-.571,.084c-.104-.323-.156-.57-.261-.793-.152-.322-.414-.489-.79-.483-.361,.005-.587,.175-.731,.489-.222,.486-.238,.966,.022,1.446,.268,.495,.899,.635,1.278,.223,.226-.246,.333-.6,.482-.882Z" fill="#fff"/><path d="M105.765,42.337c-1.05-.033-1.649-.728-1.613-1.719,.038-1.054,.535-1.722,1.653-1.721,1.025,.001,1.59,.671,1.584,1.678-.006,.988-.48,1.681-1.623,1.761Zm-.906-1.733c0,.121-.02,.246,.004,.363,.075,.372,.254,.7,.631,.807,.37,.105,.701-.008,.957-.338,.397-.513,.305-1.474-.217-1.86-.112-.083-.268-.137-.407-.145-.628-.036-.968,.386-.967,1.173Z" fill="#fff"/><path d="M118.354,47.434c0,.865,.534,1.099,1.93,.874,.04,.138,.081,.277,.127,.436-.555,.225-1.11,.335-1.697,.144-.871-.283-1.281-1.309-.922-2.32,.29-.816,1.149-1.231,1.914-.958,.703,.251,.929,1.079,.879,1.57-.01,.096-.239,.237-.372,.242-.619,.026-1.239,.011-1.859,.011Zm-.022-.581h1.623c-.228-.741-.293-.794-.855-.785-.521,.008-.637,.387-.768,.785Z" fill="#fff"/><path d="M73.549,47.253c-.005,1.007-.7,1.733-1.655,1.728-.917-.004-1.599-.698-1.581-1.692,.019-1.069,.636-1.74,1.63-1.757,.948-.016,1.609,.727,1.607,1.721Zm-.728,.004c0-.666-.244-1.094-.674-1.184-.496-.103-1.003,.252-1.135,.795-.153,.63,.2,1.457,.667,1.562,.029,.007,.06,.002,.091,.005,.677,.064,1.051-.356,1.051-1.178Z" fill="#fff"/><path d="M83.069,40.786h-2.202c.165,.979,.568,1.157,1.914,.872,.227,.439,.203,.48-.259,.59-.747,.178-1.427,.14-1.968-.501-.467-.554-.484-1.586-.021-2.234,.4-.559,1.119-.772,1.763-.539,.483,.175,.948,.898,.773,1.812Zm-.625-.568c-.012-.508-.213-.772-.597-.792-.612-.033-.865,.184-.935,.818,.454,0,.906,0,1.357-.001,.059,0,.117-.016,.175-.025Z" fill="#fff"/><path d="M108.68,47.241c-.103-1.033,.801-1.721,1.607-1.715,.932,.006,1.62,.773,1.586,1.747-.035,.988-.699,1.711-1.641,1.709-.804-.002-1.645-.602-1.552-1.74Zm.637,.03c.002,.733,.439,1.214,1.056,1.164,.443-.036,.716-.391,.825-1.072,.11-.687-.431-1.354-1.049-1.293-.484,.047-.835,.554-.833,1.202Z" fill="#fff"/><path d="M121.8,40.79c.048,.86,.486,1.05,1.94,.89,.039,.13,.079,.265,.124,.416-.703,.291-1.38,.376-2.062-.026-.644-.38-.886-1.476-.496-2.303,.345-.73,1.156-1.072,1.87-.788,.529,.21,.98,.968,.87,1.538-.021,.11-.232,.256-.36,.262-.618,.027-1.239,.012-1.885,.012Zm1.595-.557c-.169-.733-.305-.849-.914-.807-.357,.024-.615,.342-.648,.807h1.562Z" fill="#fff"/><path d="M49.807,48.279c.167,.366,.101,.577-.296,.61-.342,.029-.698,.123-1.024,.06-.838-.161-1.24-.708-1.273-1.602-.034-.899,.386-1.521,1.196-1.769,.722-.222,1.541,.287,1.656,1.028,.016,.103,.016,.211,.047,.31,.116,.377-.012,.532-.409,.521-.576-.015-1.152,0-1.728,.005-.014,0-.028,.011-.042,.017-.144,.654,.532,1.277,1.874,.819Zm-1.903-1.415h1.513c.009-.514-.182-.767-.586-.795-.543-.037-.844,.214-.927,.795Z" fill="#fff"/><path d="M158.101,47.227c.126,.974-.71,1.776-1.605,1.759-.937-.018-1.587-.714-1.579-1.749,.008-1.11,.759-1.694,1.628-1.706,.842-.011,1.63,.602,1.556,1.695Zm-.637,.039c.002-.701-.38-1.188-.935-1.196-.56-.008-.995,.535-.976,1.217,.02,.676,.41,1.147,.951,1.149,.564,.002,.958-.478,.959-1.17Z" fill="#fff"/><path d="M128.885,47.427h-2.226c.127,.969,.656,1.202,1.892,.86,.253,.437,.22,.492-.265,.607-.729,.172-1.392,.134-1.928-.476-.82-.935-.279-2.623,.928-2.882,.768-.165,1.539,.435,1.596,1.248,.014,.195,.002,.391,.002,.644Zm-2.167-.565h1.511c-.015-.532-.231-.784-.657-.793-.572-.013-.82,.213-.854,.793Z" fill="#fff"/><path d="M68.179,47.226c0,1.053-.656,1.759-1.635,1.755-.845-.004-1.567-.644-1.568-1.745,0-.861,.634-1.679,1.601-1.708,.98-.03,1.694,.818,1.603,1.698Zm-2.548,.011c-.015,.683,.379,1.173,.929,1.203,.678,.038,.913-.582,.971-1.171,.065-.662-.389-1.197-.934-1.2-.568-.004-.949,.457-.965,1.168Z" fill="#fff"/><path d="M55.463,47.434c-.008,.88,.568,1.136,1.905,.872,.154,.316,.129,.544-.283,.581-.356,.032-.729,.122-1.067,.053-.777-.159-1.204-.694-1.218-1.392-.025-1.205,.252-1.676,1.153-1.961,.728-.23,1.526,.251,1.668,1.005q.158,.841-.709,.841h-1.449Zm1.524-.567c-.017-.553-.205-.781-.645-.798-.522-.021-.804,.229-.881,.798h1.526Z" fill="#fff"/><path d="M111.207,40.084c.036-.684-.413-.846-1.455-.485-.245-.293-.222-.493,.189-.581,.188-.04,.372-.114,.562-.135,.809-.09,1.372,.39,1.451,1.227,.013,.135,.003,.273,.003,.409,0,.559,0,1.118,0,1.776-.268-.073-.481-.131-.746-.203-.213,.063-.516,.205-.83,.233-.535,.048-.972-.326-1.061-.83-.076-.433,.268-.997,.751-1.153,.365-.118,.751-.174,1.136-.259Zm.072,.46c-.362,.096-.723,.121-.994,.29-.155,.097-.227,.433-.211,.651,.009,.113,.287,.28,.454,.293,.586,.044,.835-.344,.751-1.234Z" fill="#fff"/><path d="M48.13,42.231h-.703v-4.511h2.522c.009,.164,.017,.319,.027,.518h-1.816v1.443h1.611v.556h-1.642v1.994Z" fill="#fff"/><path d="M134.86,40.025c-.11-.672-.337-.746-1.557-.427-.046-.12-.093-.243-.182-.475,.441-.085,.851-.228,1.261-.229,.669-.002,1.121,.468,1.141,1.13,.022,.723,.005,1.448,.005,2.274-.246-.073-.441-.131-.766-.228-.289,.191-.748,.43-1.294,.157-.658-.329-.753-1.317-.109-1.683,.448-.254,.987-.349,1.498-.519Zm.004,.524c-.348,.089-.699,.102-.948,.269-.171,.115-.263,.442-.263,.674,0,.099,.319,.276,.499,.285,.57,.027,.776-.314,.713-1.228Z" fill="#fff"/><path d="M63.507,40.02c-.182-.685-.419-.759-1.556-.418-.048-.118-.097-.238-.193-.471,.444-.088,.852-.233,1.261-.236,.671-.006,1.127,.458,1.15,1.12,.025,.724,.006,1.449,.006,2.274-.243-.066-.438-.12-.632-.173,.009-.05,.019-.101,.028-.151-.452,.296-.899,.508-1.459,.269-.653-.279-.737-1.396-.085-1.709,.458-.22,.966-.334,1.481-.505Zm-.009,.534c-.331,.082-.632,.14-.922,.232-.363,.115-.376,.448-.285,.707,.05,.142,.332,.277,.515,.284,.57,.022,.777-.333,.692-1.223Z" fill="#fff"/><path d="M101.222,42.292c-.209-.057-.414-.114-.62-.17,.01-.037,.019-.074,.029-.111-.243,.108-.476,.257-.73,.315-.497,.115-1.051-.204-1.207-.648-.162-.46,.051-1.026,.548-1.245,.399-.176,.843-.252,1.295-.38,.059-.517-.306-.77-1.007-.616-.087,.019-.169,.084-.254,.084-.107,0-.215-.044-.322-.069,.046-.128,.057-.33,.145-.371,1.112-.524,2.239,.017,2.135,1.1-.065,.668-.012,1.347-.012,2.111Zm-.536-1.734c-.393,.069-.644,.051-.819,.159-.22,.136-.421,.352-.538,.58-.047,.091,.12,.402,.249,.449,.274,.1,.63,.144,.801-.181,.14-.268,.184-.586,.307-1.007Z" fill="#fff"/><path d="M103.458,46.668c-.099-.668-.351-.751-1.553-.424-.047-.12-.094-.242-.185-.475,.44-.086,.85-.23,1.26-.231,.671-.002,1.123,.468,1.143,1.131,.022,.724,.005,1.45,.005,2.211-.247-.024-.538,.161-.584-.296-.451,.317-.907,.56-1.458,.294-.663-.32-.773-1.323-.133-1.687,.449-.256,.989-.351,1.504-.522Zm.008,.526c-.349,.088-.664,.143-.961,.251-.321,.116-.355,.435-.262,.68,.056,.146,.324,.288,.503,.297,.571,.029,.776-.307,.72-1.227Z" fill="#fff"/><path d="M137.987,48.87h-.52c-.014-.09-.028-.188-.047-.312-.058,.037-.109,.062-.152,.098-.357,.299-.755,.43-1.206,.263-.519-.193-.651-.431-.624-1.046,.019-.434,.399-.855,.922-.976,.317-.073,.645-.097,.968-.143-.071-.743-.365-.842-1.559-.505-.048-.128-.097-.259-.193-.517,.516-.065,1.002-.22,1.462-.163,.645,.08,.945,.546,.948,1.213,.003,.689,0,1.377,0,2.087Zm-.687-1.689c-.348,.104-.697,.137-.952,.309-.16,.108-.254,.433-.232,.645,.012,.117,.323,.278,.506,.286,.57,.026,.784-.347,.678-1.24Z" fill="#fff"/><path d="M70.454,42.236c-.19-.042-.509,.18-.581-.228-.257,.109-.507,.268-.776,.319-.539,.102-1.088-.262-1.188-.732-.124-.586,.276-1.184,.924-1.34,.303-.073,.618-.094,.931-.14,.074-.574-.292-.83-.996-.678-.087,.019-.169,.084-.254,.085-.109,.002-.218-.039-.328-.061,.04-.127,.045-.334,.125-.367,.52-.221,1.062-.34,1.595-.036,.46,.262,.573,.686,.553,1.192-.025,.645-.006,1.292-.006,1.988Zm-.522-1.676c-.411,.073-.688,.057-.887,.174-.207,.122-.389,.352-.478,.576-.042,.106,.153,.437,.252,.442,.259,.013,.62-.015,.762-.18,.192-.223,.217-.589,.351-1.013Z" fill="#fff"/><path d="M79.637,45.848c.52-.264,1.025-.442,1.597-.237,.491,.176,.775,.548,.778,1.079,.004,.707,0,1.414,0,2.16h-.526c-.011-.078-.024-.167-.038-.269-.04,.014-.086,.017-.113,.041-.421,.375-.909,.529-1.395,.214-.223-.145-.391-.466-.46-.739-.119-.466,.132-.843,.55-1.021,.415-.177,.872-.253,1.323-.377-.035-.668-.503-.828-1.53-.435-.059-.131-.119-.266-.186-.416Zm1.677,1.325c-.358,.125-.725,.197-1.022,.381-.129,.08-.192,.412-.142,.589,.037,.131,.301,.269,.471,.278,.613,.034,.829-.333,.692-1.249Z" fill="#fff"/><path d="M127.608,42.226h-.725c0-.666,.002-1.313,0-1.96-.002-.514-.275-.85-.675-.84-.427,.011-.775,.396-.779,.874-.005,.632-.001,1.265-.001,1.921h-.663v-3.229h.535c.019,.093,.041,.203,.064,.314,.422-.243,.806-.548,1.365-.362,.695,.23,.815,.802,.867,1.383,.055,.613,.012,1.235,.012,1.898Z" fill="#fff"/><path d="M148.366,45.632h.648c0,.208-.007,.413,.001,.619,.021,.512,.052,1.024,.075,1.537,.016,.356,.252,.614,.545,.615,.246,0,.545-.196,.724-.394,.14-.154,.17-.441,.18-.672,.024-.557,.008-1.115,.008-1.698h.601v3.309c-.247-.101-.462-.19-.721-.296-.174,.077-.445,.262-.739,.316-.689,.125-1.233-.351-1.308-1.196-.063-.702-.013-1.415-.013-2.14Z" fill="#fff"/><path d="M131.918,45.495c.281,.157,.48,.268,.594,.332,.414-.099,.823-.292,1.219-.269,.543,.032,.941,.532,.97,1.119,.035,.722,.008,1.446,.008,2.191h-.636c0-.562,.021-1.133-.009-1.701-.015-.273-.063-.588-.216-.795-.121-.163-.447-.294-.646-.254-.464,.093-.663,.476-.673,.934-.013,.589-.003,1.179-.003,1.803h-.609v-3.361Z" fill="#fff"/><path d="M54.276,38.987h.499c.015,.121,.03,.245,.05,.407,.072-.052,.121-.081,.162-.119,.39-.366,.834-.507,1.347-.301,.489,.196,.694,.629,.727,1.097,.05,.705,.013,1.415,.013,2.149h-.636c0-.527,.006-1.038-.003-1.549-.003-.178-.031-.358-.07-.532-.11-.483-.384-.75-.713-.712-.377,.044-.748,.449-.757,.869-.014,.632-.004,1.265-.004,1.923h-.615v-3.233Z" fill="#fff"/><path d="M62.081,48.874h-.609v-3.243c.152-.007,.297-.013,.481-.022,.024,.129,.046,.25,.071,.387,.067-.03,.115-.038,.143-.066,.4-.39,.861-.523,1.387-.305,.487,.202,.67,.643,.7,1.112,.044,.692,.011,1.39,.011,2.118h-.637c0-.518,.003-1.043-.002-1.568-.002-.164-.02-.328-.042-.491-.056-.417-.279-.705-.712-.719-.413-.014-.78,.44-.789,.932-.011,.604-.003,1.208-.003,1.864Z" fill="#fff"/><path d="M52.615,38.99h.646v3.218c-.181-.023-.54,.271-.579-.264-.234,.116-.461,.263-.709,.345-.67,.22-1.42-.288-1.446-.993-.027-.755-.006-1.511-.006-2.296h.637c0,.621-.002,1.238,0,1.855,.002,.595,.26,.954,.678,.934,.41-.019,.833-.432,.789-.972-.049-.598-.011-1.204-.011-1.826Z" fill="#fff"/><path d="M52.903,44.877h-1.358v-.504h3.408c.012,.157,.022,.302,.037,.496h-1.368v3.996h-.719v-3.988Z" fill="#fff"/><path d="M67.469,39.618c-1.02-.277-1.385-.195-1.736,.301-.284,.401-.274,1.058,.053,1.466,.417,.521,.952,.472,1.508,.268,.305,.483,.226,.562-.798,.732,.091,.109,.146,.202,.225,.267,.289,.239,.233,.512,.041,.752-.19,.237-.856,.269-.999,.075-.036-.049-.046-.163-.013-.204,.046-.059,.14-.102,.219-.111,.153-.017,.309-.005,.463-.005l.038-.121c-.161-.102-.322-.203-.511-.323,.038-.095,.095-.239,.167-.42-.593-.125-1.002-.471-1.153-1.042-.135-.512-.134-1.025,.13-1.525,.378-.717,1.353-1.032,2.179-.727,.104,.038,.11,.342,.189,.618Z" fill="#fff"/><path d="M96.585,48.826c.079-.453,.143-.689,.56-.439,.169,.101,.447,.067,.663,.028,.117-.021,.275-.171,.294-.283,.022-.136-.041-.34-.143-.43-.162-.145-.384-.223-.583-.324-.526-.268-.785-.641-.701-1.022,.103-.469,.594-.847,1.147-.823,.283,.012,.562,.119,.858,.186-.071,.205-.118,.341-.157,.457-.299-.037-.572-.106-.84-.088-.123,.008-.289,.165-.335,.292-.035,.095,.056,.296,.152,.367,.189,.139,.421,.218,.634,.325,.541,.274,.73,.627,.623,1.158-.076,.376-.516,.737-1.011,.741-.375,.004-.751-.09-1.16-.144Z" fill="#fff"/><path d="M130.906,39.136c-.06,.167-.109,.305-.164,.459-.564-.247-1.106-.268-1.533,.211-.327,.366-.316,1.141-.041,1.564,.25,.383,.738,.476,1.579,.291,.049,.128,.099,.259,.148,.387-.664,.471-1.644,.366-2.205-.224-.509-.536-.56-1.644-.098-2.238,.538-.693,1.569-.928,2.314-.45Z" fill="#fff"/><path d="M154.508,45.757c-.039,.143-.078,.286-.127,.467-.641-.251-1.226-.251-1.634,.364-.296,.446-.252,1.028,.063,1.422,.366,.457,.704,.519,1.53,.281,.224,.412,.19,.499-.236,.604-.872,.216-1.568-.015-1.973-.654-.363-.572-.282-1.557,.178-2.146,.434-.556,1.516-.722,2.201-.337Z" fill="#fff"/><path d="M60.661,48.269c.099,.388,.087,.557-.335,.65-.896,.196-1.517-.103-1.908-.645-.347-.481-.341-1.448,.009-1.961,.437-.639,1.146-.901,1.92-.707,.142,.036,.285,.071,.435,.108-.051,.181-.094,.334-.147,.521-.633-.267-1.201-.254-1.621,.327-.266,.369-.258,1.035,.007,1.398,.425,.582,.996,.557,1.64,.309Z" fill="#fff"/><path d="M101.11,45.603v.547h-.802c0,.647-.024,1.249,.008,1.848,.023,.447,.358,.478,.707,.404,.173,.457,.115,.554-.331,.579-.661,.038-1.017-.293-1.021-.954-.004-.603,0-1.207,0-1.855-.373,.023-.678-.034-.508-.533,.146-.014,.305-.03,.492-.049,.01-.187,.019-.364,.03-.58,.185-.045,.377-.092,.598-.146,.016,.269,.03,.49,.045,.74h.782Z" fill="#fff"/><path d="M69.542,44.141v4.718h-.635v-1.381c0-.952,0-1.904,0-2.856q0-.573,.635-.481Z" fill="#fff"/><path d="M129.649,45.526c.254,.125,.452,.222,.635,.313,.282-.083,.614-.18,.947-.278,.035,.181,.07,.361,.105,.541-.829,.123-1.012,.278-1.079,1.258-.034,.493-.006,.99-.006,1.507h-.602v-3.341Z" fill="#fff"/><path d="M102.855,42.231h-.648v-3.244c.131-.006,.306-.014,.516-.024,.022,.138,.042,.263,.053,.333,.312-.159,.645-.33,1.056-.54v.716c-.77,.12-.978,.372-.978,1.174,0,.512,0,1.024,0,1.585Z" fill="#fff"/><path d="M132.224,42.226h-.671v-3.229h.671v3.229Z" fill="#fff"/><path d="M120.398,42.227h-.674v-3.228h.674v3.228Z" fill="#fff"/><path d="M78.13,45.633h.583v3.238h-.583v-3.238Z" fill="#fff"/><path d="M121.802,38.589c.188-.284,.362-.54,.529-.8,.19-.296,.434-.26,.62-.042,.215,.253,.369,.559,.558,.857-.562,.24-.624-.266-.845-.517q-.443,.608-.863,.502Z" fill="#fff"/><path d="M68.873,38.335c-.038,.028-.174,.129-.311,.229-.052-.036-.104-.072-.155-.107,.081-.183,.12-.405,.25-.541,.362-.377,.634,.153,.919,.138,.154-.12,.28-.218,.406-.316,.051,.036,.102,.072,.153,.107-.074,.189-.124,.522-.227,.539-.306,.052-.634-.02-1.035-.05Z" fill="#fff"/><path d="M109.664,37.684c1.002-.314,.989,.528,1.44,.934-.858,.145-.908-.636-1.44-.934Z" fill="#fff"/><path d="M120.629,38.078c-.27,.166-.404,.293-.562,.337-.296,.083-.458-.162-.422-.369,.029-.166,.258-.365,.434-.411,.104-.027,.279,.214,.551,.442Z" fill="#fff"/><path d="M131.781,38.488c-.103-.146-.317-.325-.285-.429,.053-.175,.263-.303,.407-.451,.137,.142,.365,.27,.388,.429,.031,.215-.092,.456-.51,.451Z" fill="#fff"/><path d="M78.479,45.138c-.392-.069-.533-.252-.453-.501,.049-.155,.279-.377,.389-.357,.156,.029,.371,.245,.383,.396,.012,.144-.203,.307-.318,.462Z" fill="#fff"/><g><path d="M33.162,22.308l6.484-11.275c-.754-.425-16.012-9.256-18.584-10.734-.299-.172-.568-.331-.901-.294,0,0,12.081,20.702,13.001,22.303Z" fill="#fff"/><path d="M25.893,11.656L19.331,.389c-3.13,1.851-6.294,3.644-9.444,5.462C6.706,7.686,3.531,9.532,.341,11.353c-.181,.104-.271,.204-.311,.346,0,0,21.845-.03,25.862-.043Z" fill="#fff"/><path d="M40.584,33.95c-.005-7.352-.006-14.703,.004-22.055,0-.189-.044-.306-.155-.403,0,0-10.605,18.47-12.464,21.689-.147,.255-.295,.511-.445,.768h13.06Z" fill="#fff"/><path d="M.004,12.609c.007,3.551,.005,7.102,.005,10.653,0,3.746,.005,7.491-.009,11.237,0,.093,.007,.175,.022,.25C.022,34.749,10.435,16.998,12.17,14.009c.269-.463,.53-.931,.791-1.399H.004Z" fill="#fff"/><path d="M14.564,34.864l6.414,11.289c1.741-1.005,17.038-9.845,19.237-11.081,.123-.069,.207-.137,.264-.213,0,0-21.782,.015-25.915,.004Z" fill="#fff"/><path d="M7.35,24.169L.698,35.393c1.149,.638,2.287,1.295,3.425,1.951,2.68,1.545,5.358,3.092,8.035,4.641,2.612,1.512,5.222,3.03,7.837,4.536,.042,.024,.103,.036,.165,.037,0,0-11.646-20.343-12.81-22.39Z" fill="#fff"/></g></svg>