<?xml version="1.0" encoding="UTF-8"?><svg id="Layer_1" xmlns="http://www.w3.org/2000/svg" viewBox="0 0 24.257 24.258"><path id="Instagram" d="M17.031,24.258H7.226c-3.989-.005-7.222-3.238-7.226-7.227V7.226C.005,3.237,3.237,.005,7.226,0h9.805c3.989,.005,7.221,3.237,7.226,7.226v9.805c-.004,3.989-3.237,7.222-7.226,7.227ZM7.226,2.44c-2.642,.003-4.783,2.144-4.786,4.786v9.805c.003,2.642,2.144,4.783,4.786,4.786h9.805c2.642-.003,4.783-2.144,4.786-4.786V7.226c-.003-2.642-2.144-4.783-4.786-4.786H7.226Zm4.9,15.962c-3.465,0-6.274-2.809-6.274-6.274s2.809-6.274,6.274-6.274,6.274,2.809,6.274,6.274h0c-.006,3.462-2.81,6.266-6.271,6.272l-.003,.002Zm0-10.107c-2.117,0-3.833,1.716-3.833,3.833s1.716,3.833,3.833,3.833,3.833-1.716,3.833-3.833c-.005-2.113-1.717-3.824-3.83-3.828l-.003-.005Zm6.286-.89c-.828,0-1.5-.672-1.5-1.5s.672-1.5,1.5-1.5,1.5,.672,1.5,1.5c0,.828-.669,1.499-1.497,1.501h-.003Z" fill="#fff" opacity=".8"/></svg>