<?xml version="1.0" encoding="UTF-8"?><svg id="Layer_1" xmlns="http://www.w3.org/2000/svg" viewBox="0 0 136.354 49.941"><g><path d="M9.643,6.233V15.971c11.29-.494,14.86,5.101,14.86,5.101-1.158-13.88-14.86-14.839-14.86-14.839Z" fill="#fff"/><path d="M24.502,21.072s3.57-5.595,14.86-5.101V6.233s-13.702,.958-14.86,14.839Z" fill="#fff"/><path d="M24.513,21.061s5.595,3.57,5.101,14.86h9.738s-.958-13.702-14.838-14.86Z" fill="#fff"/><path d="M.036,49.941H10.137c-2.046-24.586,14.355-28.88,14.355-28.88C-1.99,22.18,.036,49.941,.036,49.941Z" fill="#fff"/></g><path d="M38.6,0H10.405C6.553,0,3.431,3.122,3.431,6.974V27.257c1.06-1.337,2.253-2.617,3.599-3.808V7.341c0-2.067,1.675-3.742,3.742-3.742h27.462c2.067,0,3.742,1.675,3.742,3.742v27.462c0,2.066-1.675,3.742-3.742,3.742H13.665v3.598h24.935c3.852,0,6.974-3.122,6.974-6.974V6.974c0-3.852-3.123-6.974-6.974-6.974Z" fill="#fff"/><g><path d="M61.018,17.944c.859-.749,1.447-1.816,1.447-3.179,0-2.089-1.47-3.36-3.075-3.769v-.068c1.65-.613,2.532-1.885,2.532-3.292,0-1.317-.633-2.316-1.583-2.884-1.017-.704-2.306-.976-4.341-.976-1.583,0-3.188,.159-4.07,.341v15.031c.724,.091,1.877,.204,3.414,.204,2.803,0,4.59-.477,5.675-1.408Zm-6.331-11.989c.294-.068,.769-.114,1.583-.114,1.764,0,2.849,.659,2.849,2.112,0,1.294-1.063,2.203-3.007,2.203h-1.424V5.955Zm0,6.222h1.379c1.922,0,3.482,.727,3.482,2.52,0,1.885-1.605,2.543-3.392,2.543-.633,0-1.108,0-1.47-.068v-4.995h0Z" fill="#fff"/><path d="M70.287,17.967h.068l.203,1.226h2.51c-.136-.681-.181-1.658-.181-2.657v-3.974c0-2.43-1.018-4.677-4.545-4.677-1.741,0-3.166,.477-3.98,.976l.543,1.816c.746-.477,1.877-.817,2.962-.817,1.945,0,2.239,1.203,2.239,1.93v.182c-4.07-.023-6.534,1.408-6.534,4.178,0,1.68,1.244,3.292,3.459,3.292,1.447,0,2.601-.613,3.256-1.476Zm-3.957-2.112c0-1.68,1.877-2.089,3.844-2.066v1.521c0,.204,0,.409-.068,.613-.271,.795-1.063,1.521-2.193,1.521-.882,0-1.583-.499-1.583-1.589Z" fill="#fff"/><path d="M80.349,10.156c1.515,0,2.103,1.203,2.103,2.793v6.244h2.781v-6.562c0-3.497-1.99-4.746-3.912-4.746-1.831,0-3.03,1.044-3.527,1.907h-.068l-.136-1.657h-2.419c.045,.954,.09,2.021,.09,3.292v7.765h2.781v-6.517c0-.318,.045-.659,.136-.885,.294-.84,1.063-1.635,2.171-1.635Z" fill="#fff"/><path d="M92.603,19.42c1.379,0,2.532-.295,3.12-.568l-.384-2.066c-.543,.227-1.244,.431-2.193,.431-1.899,0-3.369-1.294-3.369-3.565-.023-2.021,1.244-3.588,3.369-3.588,.995,0,1.651,.204,2.103,.431l.497-2.112c-.633-.273-1.673-.5-2.691-.5-3.866,0-6.127,2.566-6.127,5.881,0,3.429,2.239,5.654,5.675,5.654Z" fill="#fff"/><path d="M107.481,13.562c0-3.36-2.193-5.677-5.472-5.677-3.324,0-5.698,2.225-5.698,5.858,0,3.565,2.419,5.699,5.517,5.699,2.804,0,5.653-1.817,5.653-5.881Zm-8.298,.114c0-1.839,.791-3.769,2.758-3.769,1.899,0,2.668,1.998,2.668,3.724,0,2.248-1.108,3.792-2.691,3.792-1.673,0-2.736-1.612-2.736-3.746Z" fill="#fff"/><path d="M117.339,19.443c1.583,0,2.917-.772,3.573-1.998h.045l.136,1.748h2.464c-.045-.749-.09-1.975-.09-3.111V3.072h-2.781v6.244h-.045c-.497-.818-1.583-1.43-3.098-1.43-2.645,0-4.952,2.203-4.929,5.904,0,3.406,2.08,5.654,4.726,5.654Zm.882-9.4c1.266,0,2.148,.885,2.397,1.953,.045,.227,.068,.522,.068,.749v1.658c0,.295-.023,.568-.09,.817-.271,1.203-1.266,1.975-2.397,1.975-1.764,0-2.758-1.476-2.758-3.519,0-2.044,.995-3.633,2.781-3.633Z" fill="#fff"/><path d="M130.701,19.443c2.804,0,5.653-1.817,5.653-5.881,0-3.36-2.193-5.677-5.472-5.677-3.324,0-5.698,2.225-5.698,5.858,0,3.565,2.419,5.699,5.517,5.699Zm.113-9.537c1.899,0,2.668,1.998,2.668,3.724,0,2.248-1.108,3.792-2.691,3.792-1.673,0-2.736-1.612-2.736-3.746,0-1.839,.791-3.769,2.758-3.769Z" fill="#fff"/><path d="M61.266,27.143c0,2.316,.068,4.382,.271,6.403h-.045c-.701-1.726-1.583-3.633-2.487-5.245l-3.165-5.608h-4.025v15.304h3.166v-4.609c0-2.498-.045-4.655-.158-6.698h.09c.724,1.794,1.741,3.769,2.645,5.404l3.256,5.904h3.618v-15.304h-3.166v4.45h0Z" fill="#fff"/><path d="M71.667,26.62c-3.573,0-5.924,2.293-5.924,5.904,0,3.588,2.487,5.722,5.72,5.722,2.962,0,5.834-1.862,5.834-5.926,0-3.361-2.261-5.699-5.63-5.699Zm-.113,9.151c-1.47,0-2.261-1.43-2.261-3.338,0-1.635,.633-3.338,2.261-3.338,1.56,0,2.193,1.68,2.193,3.315,0,2.021-.837,3.36-2.193,3.36Z" fill="#fff"/><path d="M81.638,28.936h-.09l-.136-2.043h-2.939c.068,.954,.09,2.021,.09,3.656v7.448h3.437v-5.631c0-.273,.023-.545,.068-.772,.226-1.067,1.085-1.748,2.352-1.748,.384,0,.656,.045,.927,.091v-3.247c-.249-.045-.407-.068-.724-.068-1.085,0-2.419,.681-2.985,2.316Z" fill="#fff"/><path d="M96.832,21.875h-3.437v5.995h-.045c-.497-.749-1.538-1.249-2.917-1.249-2.645,0-4.974,2.18-4.952,5.926,0,3.451,2.103,5.699,4.726,5.699,1.424,0,2.781-.636,3.459-1.862h.068l.136,1.612h3.052c-.045-.749-.09-2.066-.09-3.315v-12.806h0Zm-3.437,11.171c0,.273-.023,.545-.068,.795-.203,.976-1.017,1.658-2.012,1.658-1.424,0-2.352-1.181-2.352-3.065,0-1.748,.791-3.156,2.374-3.156,1.063,0,1.809,.772,2.012,1.68,.045,.204,.045,.454,.045,.636v1.453h0Z" fill="#fff"/><path d="M103.683,26.643c-3.844,0-5.585,3.111-5.585,5.926,0,3.474,2.148,5.654,5.901,5.654,1.492,0,2.872-.227,4.002-.704l-.452-2.339c-.927,.318-1.877,.477-3.052,.477-1.605,0-3.03-.681-3.12-2.112h7.122c.045-.25,.113-.772,.113-1.362,0-2.747-1.356-5.54-4.929-5.54Zm-2.329,4.541c.09-.908,.678-2.248,2.125-2.248,1.583,0,1.944,1.408,1.944,2.248h-4.07Z" fill="#fff"/><path d="M114.536,31.207c-1.357-.477-1.786-.749-1.786-1.294s.475-.886,1.312-.886c.927,0,1.899,.363,2.397,.636l.588-2.384c-.678-.341-1.809-.658-3.098-.658-2.736,0-4.5,1.567-4.5,3.656-.023,1.317,.859,2.566,3.166,3.338,1.266,.431,1.605,.704,1.605,1.294,0,.568-.43,.908-1.47,.908-1.017,0-2.329-.431-2.962-.817l-.61,2.452c.837,.454,2.125,.795,3.572,.795,3.166,0,4.771-1.521,4.771-3.61-.023-1.612-.882-2.702-2.985-3.429Z" fill="#fff"/><path d="M122.607,23.896l-3.369,.931v2.066h-1.47v2.543h1.47v4.541c0,1.567,.316,2.634,.95,3.292,.565,.568,1.492,.954,2.6,.954,.95,0,1.786-.136,2.216-.295l-.023-2.611c-.316,.068-.543,.091-1.017,.091-1.018,0-1.357-.613-1.357-1.953v-4.019h2.464v-2.543h-2.464v-2.997h0Z" fill="#fff"/><path d="M131.041,26.643c-3.844,0-5.585,3.111-5.585,5.926,0,3.474,2.148,5.654,5.901,5.654,1.492,0,2.872-.227,4.002-.704l-.452-2.339c-.927,.318-1.877,.477-3.052,.477-1.605,0-3.03-.681-3.12-2.112h7.122c.045-.25,.113-.772,.113-1.362,0-2.747-1.357-5.54-4.929-5.54Zm-2.329,4.541c.09-.908,.678-2.248,2.125-2.248,1.583,0,1.944,1.408,1.944,2.248h-4.07Z" fill="#fff"/></g></svg>