<?xml version="1.0" encoding="utf-8"?>
<!-- Generator: Adobe Illustrator 23.0.3, SVG Export Plug-In . SVG Version: 6.00 Build 0)  -->
<svg version="1.1" id="Camada_1" xmlns="http://www.w3.org/2000/svg" xmlns:xlink="http://www.w3.org/1999/xlink" x="0px" y="0px"
	 viewBox="0 0 1053.1 538.5" style="enable-background:new 0 0 1053.1 538.5;" xml:space="preserve">
<style type="text/css">
	.st0{fill:#201B18;}
	.st1{fill:#221D1A;}
	.st2{fill:#98A2A8;}
	.st3{fill:#FDFDFD;}
</style>
<path class="st0" d="M-329.5,0.1c17.8,1.8,32.9,9.1,45.5,21.7c20.5,20.5,41,41,61.4,61.4c17.9,17.9,35.7,35.8,53.6,53.6
	c8.8,8.8,15.5,19,18.8,31c7.8,28.2,1.8,53.1-18.8,73.9c-36,36.4-72.3,72.5-108.6,108.6c-4.7,4.7-9.3,9.7-14.7,13.8
	c-10.4,7.8-22.1,12.7-35.1,14.2c-20.3,2.4-38.6-2.6-54.8-15.2c-2.6-2-5-4.3-7.3-6.6c-12.7-12.7-25.5-25.4-38.2-38.2
	c-1.2-1.2-2.3-1.5-4-1.3c-13.9,1.7-27.6,1.2-40.7-4.6c-8.6-3.8-16-9.1-21.4-16.9c-4.3-6.1-6.6-12.9-6.3-20.5
	c0.3-6.3,2.7-11.9,5.9-17.3c0.2-0.3,0.4-0.5,0.5-0.8c0.5-1,1.8-1.8,1.5-2.8c-0.2-0.9-1.3-1.5-2-2.3c-4.9-5-10-9.6-14.6-14.9
	c-9.4-11-15.1-23.6-16.9-38c-2.7-22,3.2-41.4,17.6-58.3c1.2-1.5,2.6-2.8,4-4.2c38.2-38.2,76.5-76.5,114.7-114.7
	c9.9-9.9,21.5-16.8,35.1-20.1c3.5-0.9,10.6-1.8,10.6-1.8s-0.1,0,3.4-0.2s2.9-0.2,2.9-0.2h1.4c0,0,1.6,0.2,2.9,0.2
	S-330.7-0.1-329.5,0.1z M-501,207.1L-501,207.1c0.1,0.5,0.2,1.1,0.4,1.6c2.5,6.6,6.1,12.5,11,17.6c4.1,4.3,8.3,8.4,12.5,12.6
	c1.6,1.7,1.4,1.4,3.2,0.4c16.1-8.6,33.2-10.9,51.1-8.4c3.5,0.5,6.9,1.2,10.3,2.2c0.7,0.2,1.2,0.4,1.5-0.5c0.8-2.6,1.9-5.1,2.3-7.8
	c0.8-1.6,1.3-3.2,1.9-4.9c1.5-4.7,2.8-9.5,4.5-14.2c2.1-6.1,3.6-12.4,5.9-18.5c1.5-4.2,2.5-8.5,3.7-12.7s2.7-8.2,4.2-12.3
	c1.6-4.2,2.2-8.7,3.9-12.9c1.3-3.2,2.4-6.5,3.2-9.9c1-3.4,2-6.7,3.1-10.1c1.7-5.1,3.1-10.3,4.8-15.3c1.7-4.9,2.5-9.9,2.2-15
	c-0.3-5.4-2.6-9.8-7-13c-2.9-2.1-6.1-3.5-9.5-4.5c-3.3-1-6.6-1.7-10.1-2.2c-2.5-0.4-2.5-0.4-1.8-2.8c0.6-1.9,1.2-3.8,1.9-5.7
	c0.7-2,0.7-2,2.8-2c32.7,0,65.4,0,98.2,0c6.6,0,13.3,0.3,19.9,0.9c3.9,0.4,7.8,0.9,12.1,1.4c-0.7-0.8-1.2-1.3-1.7-1.8
	c-10.4-10.4-20.8-20.8-31.2-31.2c-1.3-1.3-2.6-2.6-4.1-3.7c-13.6-11-29-14.8-46.1-11.3c-10.7,2.2-19.8,7.4-27.5,15.1
	c-33.2,33.2-66.4,66.4-99.6,99.6c-0.5,0.5-1.1,0.9-1.4,1.6c-3.9,3.5-7.5,7.4-11.3,11.1c-11.4,11.3-16.9,25.1-16.5,41.2
	c0.1,5.1,0.9,10.2,2.8,15C-501.3,206.8-501.2,207-501,207.1z M-266.9,134.6c1.1-6.9,1-13.8-0.9-20.6c-1.2-4.2-3.3-8-6.4-11.1
	c-3.6-3.7-8-6-12.9-7.6c-7-2.4-14.4-2.9-21.7-3.3c-2.3-0.1-2.3,0-3,2.1c-3.1,9.8-6.2,19.6-9.2,29.5c-1.1,3.7-2.5,7.2-3.4,11
	c-0.5,0.6-0.6,1.5-0.9,2.2c-2.8,8.5-5.5,17-8.3,25.5c-4.8,14.9-9.6,29.8-14.4,44.7c-2.1,6.7-4.2,13.4-6.4,20.1
	c-3.9,12.2-7.9,24.3-11.8,36.5c-6.7,20.5-19.4,35.9-38.7,45.8c-0.4,0.2-0.9,0.3-1,0.9c0.1,0.1,0.1,0.3,0.2,0.4
	c10.9,10.9,21.6,22.1,32.9,32.6c12,11.2,26.7,15.4,43,13.5c12.4-1.4,23-6.9,31.8-15.7c37.6-37.6,75.2-75.2,112.8-112.8
	c10.1-10.1,15.4-22.2,16.1-36.4c0.7-7-0.9-13.7-3-20.3c-2.5-7.8-6.9-14.5-12.7-20.3c-8.2-8.2-16.4-16.4-24.6-24.6
	c-0.4-0.4-0.7-1-1.4-1.1c-0.3,0.1-0.3,0.4-0.3,0.6c-0.1,11.8-2.5,23.3-6,34.6c-2.4,7.7-4.9,15.4-7.4,23c-2.8,8.2-5.3,16.6-7.9,24.8
	c-0.4,1.1-1,2.2-0.9,3.4c-0.3,0.7-0.6,1.5-0.8,2.2c-2.6,8-5.1,16-7.7,24c-3.7,11.4-8.1,22.4-14.6,32.5
	c-8.5,13.2-20.1,22.6-35.2,27.5c-10,3.3-20.2,4.8-30.6,5c-12.2,0.3-24.5,0.1-36.7,0.1c-0.5,0-1.1,0.2-1.6-0.5
	c1-3.4,2.1-6.9,3.2-10.4c0.3-0.9,0.9-1,1.7-1c2.2,0,4.5,0,6.7-0.1c8.9-0.3,17.1-3.1,24.4-8.2c7-4.9,12.3-11.4,16.6-18.7
	c2.8-4.9,5.1-10,6.9-15.3c2.8-8.3,5.6-16.7,8-25.1c0.2-0.4,0.4-0.9,0.6-1.3c1.3-3.2,1.8-6.5,2.8-9.8c0.6-2,1.6-3.9,2.2-5.9
	c2.5-7.2,4.3-14.5,6.9-21.6c1.7-4.8,3-9.8,4.5-14.7c0.8-2.5,1.6-5,2.5-7.4c0.9-2.7,1.7-5.5,2.5-8.2
	C-269.2,148.3-267.5,141.5-266.9,134.6z"/>
<path class="st0" d="M881.1,149c12.4,1.3,23,6.4,31.8,15.2c14.3,14.3,28.6,28.6,42.9,42.9c12.5,12.5,24.9,25,37.4,37.4
	c6.1,6.1,10.8,13.3,13.1,21.7c5.4,19.7,1.3,37.1-13.1,51.6c-25.1,25.4-50.5,50.6-75.9,75.9c-3.3,3.3-6.5,6.8-10.3,9.6
	c-7.3,5.4-15.4,8.9-24.5,9.9c-14.2,1.7-27-1.8-38.3-10.6c-1.8-1.4-3.5-3-5.1-4.6c-8.9-8.9-17.8-17.7-26.7-26.7
	c-0.8-0.8-1.6-1-2.8-0.9c-9.7,1.2-19.3,0.8-28.4-3.2c-6-2.7-11.2-6.4-14.9-11.8c-3-4.3-4.6-9-4.4-14.3c0.2-4.4,1.9-8.3,4.1-12.1
	c0.1-0.2,0.3-0.3,0.3-0.6c0.3-0.7,1.3-1.3,1-2c-0.1-0.6-0.9-1-1.4-1.6c-3.4-3.5-7-6.7-10.2-10.4c-6.6-7.7-10.5-16.5-11.8-26.5
	c-1.9-15.4,2.2-28.9,12.3-40.7c0.8-1,1.8-2,2.8-2.9c26.7-26.7,53.4-53.4,80.1-80.1c6.9-6.9,15-11.7,24.5-14c2.4-0.6,7.4-1.3,7.4-1.3
	s-0.1,0,2.4-0.1c2.4-0.1,2-0.1,2-0.1h1c0,0,1.1,0.1,2,0.1C879.5,148.7,880.3,148.9,881.1,149z M761.4,293.6L761.4,293.6
	c0.1,0.3,0.1,0.8,0.3,1.1c1.7,4.6,4.3,8.7,7.7,12.3c2.9,3,5.8,5.9,8.7,8.8c1.1,1.2,1,1,2.2,0.3c11.2-6,23.2-7.6,35.7-5.9
	c2.4,0.3,4.8,0.8,7.2,1.5c0.5,0.1,0.8,0.3,1-0.3c0.6-1.8,1.3-3.6,1.6-5.4c0.6-1.1,0.9-2.2,1.3-3.4c1-3.3,2-6.6,3.1-9.9
	c1.5-4.3,2.5-8.7,4.1-12.9c1-2.9,1.7-5.9,2.6-8.9c0.8-2.9,1.9-5.7,2.9-8.6c1.1-2.9,1.5-6.1,2.7-9c0.9-2.2,1.7-4.5,2.2-6.9
	c0.7-2.4,1.4-4.7,2.2-7.1c1.2-3.6,2.2-7.2,3.4-10.7c1.2-3.4,1.7-6.9,1.5-10.5c-0.2-3.8-1.8-6.8-4.9-9.1c-2-1.5-4.3-2.4-6.6-3.1
	c-2.3-0.7-4.6-1.2-7.1-1.5c-1.7-0.3-1.7-0.3-1.3-2c0.4-1.3,0.8-2.7,1.3-4c0.5-1.4,0.5-1.4,2-1.4c22.8,0,45.7,0,68.6,0
	c4.6,0,9.3,0.2,13.9,0.6c2.7,0.3,5.4,0.6,8.5,1c-0.5-0.6-0.8-0.9-1.2-1.3c-7.3-7.3-14.5-14.5-21.8-21.8c-0.9-0.9-1.8-1.8-2.9-2.6
	c-9.5-7.7-20.3-10.3-32.2-7.9c-7.5,1.5-13.8,5.2-19.2,10.5c-23.2,23.2-46.4,46.4-69.6,69.6c-0.3,0.3-0.8,0.6-1,1.1
	c-2.7,2.4-5.2,5.2-7.9,7.8c-8,7.9-11.8,17.5-11.5,28.8c0.1,3.6,0.6,7.1,2,10.5C761.2,293.4,761.2,293.5,761.4,293.6z M924.9,243
	c0.8-4.8,0.7-9.6-0.6-14.4c-0.8-2.9-2.3-5.6-4.5-7.8c-2.5-2.6-5.6-4.2-9-5.3c-4.9-1.7-10.1-2-15.2-2.3c-1.6-0.1-1.6,0-2.1,1.5
	c-2.2,6.8-4.3,13.7-6.4,20.6c-0.8,2.6-1.7,5-2.4,7.7c-0.3,0.4-0.4,1-0.6,1.5c-2,5.9-3.8,11.9-5.8,17.8c-3.4,10.4-6.7,20.8-10.1,31.2
	c-1.5,4.7-2.9,9.4-4.5,14c-2.7,8.5-5.5,17-8.2,25.5c-4.7,14.3-13.6,25.1-27,32c-0.3,0.1-0.6,0.2-0.7,0.6c0.1,0.1,0.1,0.2,0.1,0.3
	c7.6,7.6,15.1,15.4,23,22.8c8.4,7.8,18.6,10.8,30,9.4c8.7-1,16.1-4.8,22.2-11c26.3-26.3,52.5-52.5,78.8-78.8
	c7.1-7.1,10.8-15.5,11.2-25.4c0.5-4.9-0.6-9.6-2.1-14.2c-1.7-5.4-4.8-10.1-8.9-14.2c-5.7-5.7-11.5-11.5-17.2-17.2
	c-0.3-0.3-0.5-0.7-1-0.8c-0.2,0.1-0.2,0.3-0.2,0.4c-0.1,8.2-1.7,16.3-4.2,24.2c-1.7,5.4-3.4,10.8-5.2,16.1c-2,5.7-3.7,11.6-5.5,17.3
	c-0.3,0.8-0.7,1.5-0.6,2.4c-0.2,0.5-0.4,1-0.6,1.5c-1.8,5.6-3.6,11.2-5.4,16.8c-2.6,8-5.7,15.6-10.2,22.7
	c-5.9,9.2-14,15.8-24.6,19.2c-7,2.3-14.1,3.4-21.4,3.5c-8.5,0.2-17.1,0.1-25.6,0.1c-0.3,0-0.8,0.1-1.1-0.3c0.7-2.4,1.5-4.8,2.2-7.3
	c0.2-0.6,0.6-0.7,1.2-0.7c1.5,0,3.1,0,4.7-0.1c6.2-0.2,11.9-2.2,17-5.7c4.9-3.4,8.6-8,11.6-13.1c2-3.4,3.6-7,4.8-10.7
	c2-5.8,3.9-11.7,5.6-17.5c0.1-0.3,0.3-0.6,0.4-0.9c0.9-2.2,1.3-4.5,2-6.8c0.4-1.4,1.1-2.7,1.5-4.1c1.7-5,3-10.1,4.8-15.1
	c1.2-3.4,2.1-6.8,3.1-10.3c0.6-1.7,1.1-3.5,1.7-5.2c0.6-1.9,1.2-3.8,1.7-5.7C923.3,252.5,924.5,247.8,924.9,243z"/>
<path class="st1" d="M-615.6,423c0.7,0.5,1.6,0.2,2.3,0.2c10.3,0,20.6,0,30.9,0.1c4.2,0,8.4,0.3,12.6,1.1
	c7.5,1.5,12.3,5.7,13.9,13.3c1.2,5.7,1.3,11.4,0.1,17.1c-1.7,8.3-7.1,12.9-15.2,14.7c-4.1,0.9-8.2,1.3-12.4,1.3
	c-9.9,0-19.8,0-29.7,0c-0.9,0-1.8,0-2.6,0.1C-615.6,455-615.6,439-615.6,423z M-602.5,451.3c0,3.5,0,6.3,0,9.2c0,1.8,0,1.9,1.8,1.9
	c4.9,0,9.7,0,14.6,0c3.2-0.1,6.4-0.3,9.4-1.4c4-1.4,6.6-4,7.7-8.1c1-3.7,1.1-7.4,0.4-11.1c-1-5.6-4.1-9-9.6-9.9
	c-5.1-0.9-10.3-0.9-15.5-0.1c-5.1,0.9-7.9,4-8.7,9.2C-602.8,444.5-602.4,448.2-602.5,451.3z"/>
<path class="st1" d="M-57.8,452.3c-0.5,0.1-0.4,0.6-0.5,1c-1,8-5.4,13.3-13.1,15.7c-4.1,1.3-8.3,1.8-12.5,1.9
	c-10.6,0.1-21.3,0.1-31.9,0.1c-2.1,0-2.1,0-2.1-2.1c0-12.5,0-24.9,0-37.4c0-2.2,0.1-4.5,0-6.7c0-1.2,0.4-1.5,1.5-1.5
	c12.4,0.1,24.8-0.2,37.2,0.3c2.6,0.1,5.1,0.5,7.6,1.1c8.4,2,12.9,7.5,13.4,16.1c-0.1,1.5-0.1,2.9,0.4,4.3c0,1.1,0,2.2,0,3.4
	c0,1-1,1.9,0,2.9C-57.8,451.7-57.8,452-57.8,452.3z M-105.3,450.9c0,3.7,0,6.7,0,9.8c0,1.6,0,1.7,1.7,1.7c4.9,0,9.7,0,14.6,0
	c3,0,6-0.4,9-1.3c4.4-1.3,7.2-4.2,8.3-8.7c0.8-3.4,0.9-6.8,0.4-10.2c-0.9-6.1-4.3-9.5-10.3-10.6c-3.3-0.6-6.5-0.3-9.8-0.4
	c-1.7,0-3.3,0.1-5,0.5c-4.9,0.9-7.7,3.8-8.6,8.7C-105.6,444.1-105.1,447.8-105.3,450.9z"/>
<path class="st2" d="M-57.8,445.1c-0.5-1.4-0.6-2.9-0.4-4.3c0.1,0.1,0.3,0.1,0.4,0C-57.8,442.2-57.8,443.7-57.8,445.1z"/>
<path class="st2" d="M-57.8,451.3c-1-1,0-1.9,0-2.9C-57.8,449.4-57.8,450.4-57.8,451.3z"/>
<path class="st1" d="M-150.1,450.7c0.1,0.7,0.7,0.9,1.1,1.3c1.6,1.5,2.9,3.2,3.8,5.2c1.9,4.4,3.7,8.8,5.5,13.1
	c-0.5,0.8-1.1,0.6-1.6,0.6c-3.7,0-7.4-0.1-11,0.1c-1.4,0-2-0.5-2.4-1.7c-1.2-3.2-2.5-6.4-3.8-9.6c-1.7-3.9-4.6-6-8.9-6
	c-1.8,0-3.5-0.1-5.3-0.1s-3.7,0-5.5,0c-1,0-1.5-0.3-1.4-1.3c0.1-1.8,0.1-3.5,0-5.3c0-1.1,0.4-1.3,1.4-1.3c4.3,0,8.6,0,13,0
	c1.4,0,2.7-0.1,4-0.5c3.4-1,5.1-3.7,4.9-7.5c-0.2-3.1-2.4-5.3-5.7-5.8c-0.7-0.1-1.4-0.2-2.1-0.2c-5.4,0-10.7,0-16.1,0
	c-4.8-0.1-7.4,2.5-7.3,7.4c0,9.6,0,19.2,0,28.8c0,0.5,0,1,0,1.4c0,1.7,0,1.8-1.7,1.8c-3.4,0-6.7,0-10.1,0c-1.7,0-1.7,0-1.7-1.8
	c0-7.3,0-14.6,0-21.8c0-7.4,0-14.7,0-22.1c0-1.9,0-1.9,1.8-1.9c13.9,0,27.8,0,41.7,0c2.3,0,4.5,0.3,6.6,1.2c5,2,7.8,5.7,8.3,11
	C-142.2,441.9-144.3,447.2-150.1,450.7z"/>
<path class="st1" d="M-255.7,422.3c5.3,0.2,10.5,0.1,15.6,1.1c8.2,1.7,12.8,6.1,14.2,14.4c1.2,6.7,1.1,13.5-0.3,20.2
	c-1.4,7-5.6,11.3-12.6,12.7c-3.5,0.7-7.1,0.9-10.7,1c-5.9,0.2-11.8,0.2-17.7-0.3c-2.3-0.2-4.6-0.5-6.8-1.1c-6.2-1.6-9.7-5.9-11-12
	c-1.5-7.1-1.6-14.3-0.2-21.4c1.5-7.6,6.2-12,13.7-13.5C-266.4,422.4-261,422.5-255.7,422.3z M-255.7,431c-3.2,0-6.4,0.1-9.5,0.9
	c-4.1,1.1-6.6,3.7-7.6,7.8c-1.1,4.4-1,8.9-0.3,13.3c0.9,5.3,4,8.5,9.4,9.5c5.5,0.9,11,1,16.4-0.1c4.8-1,7.8-3.9,8.8-8.7
	c1-4.5,0.9-9.1,0-13.6c-1-4.7-4-7.5-8.7-8.5C-250,431.1-252.9,431-255.7,431z"/>
<path class="st1" d="M-309.3,437.6c-4.3,0-8.4,0-12.6,0c-0.5,0-0.9-0.1-1.1-0.7c-1.5-3.9-4.8-5.3-8.5-5.6c-5.3-0.5-10.7-0.6-16,0.3
	c-5.9,1-8.6,3.9-9.4,9.9c-0.5,3.6-0.5,7.2,0,10.7c0.9,6.6,4,9.8,10.7,10.6c4.8,0.6,9.6,0.7,14.4,0.1c3.9-0.5,7.4-1.6,9.1-5.6
	c0.2-0.5,0.6-0.7,1.1-0.7c4.2,0,8.5,0,12.9,0c-0.6,5.3-2.4,9.6-7.2,12.1c-3.3,1.7-6.8,2.4-10.4,2.7c-9.4,0.7-18.8,1-28.2-0.3
	c-1.6-0.2-3.3-0.7-4.9-1.2c-4.7-1.4-7.6-4.6-8.9-9.2c-0.6-2.1-1-4.2-1.2-6.3c-0.5-6.1-0.7-12.1,0.7-18.1c1.6-7.1,6.1-11.2,13.1-12.7
	c3.8-0.8,7.8-1,11.7-1.1c6.8-0.1,13.6-0.4,20.4,0.5c1.5,0.2,3,0.5,4.4,1C-313,425.9-309.5,430.5-309.3,437.6z"/>
<path class="st1" d="M-392.7,456.6c-0.6,5.6-2.7,10-7.9,12.4c-3.1,1.4-6.4,2.1-9.7,2.4c-9.4,0.7-18.8,0.9-28.2-0.3
	c-2.1-0.3-4.1-0.8-6-1.6c-3.6-1.4-6-3.9-7.3-7.5c-1.2-3.1-1.7-6.3-1.9-9.6c-0.3-5.3-0.4-10.7,0.8-16c1.7-7.3,6.3-11.4,13.5-12.9
	c3.9-0.8,7.8-1,11.7-1c6.8-0.1,13.6-0.4,20.4,0.6c2.4,0.3,4.7,0.9,6.9,2c4.8,2.4,6.7,6.6,7.3,11.6c0.1,0.8-0.3,1-0.9,1
	c-3.9,0-7.8,0-11.8,0c-0.5,0-0.9-0.2-1.1-0.7c-1.5-3.9-4.8-5.2-8.5-5.5c-5.3-0.5-10.7-0.6-16,0.3c-5.8,1-8.5,4-9.3,9.7
	c-0.5,3.6-0.5,7.2-0.1,10.7c0.9,6.7,3.9,9.9,10.5,10.7c5,0.6,10.1,0.7,15.1,0c3.6-0.5,6.9-1.7,8.5-5.3c0.3-0.6,0.6-0.9,1.2-0.9
	C-401.3,456.6-397.1,456.6-392.7,456.6z"/>
<path class="st1" d="M-510.5,458c0.5-2.5,1.5-4.6,2.1-6.8c0.3-0.9,1-0.8,1.7-0.8c3,0,5.9,0,8.9,0c0.8,0,1.6,0,2.3,0
	c0.5-0.7,0-1.2-0.1-1.6c-1.6-4.7-3.2-9.4-4.9-14c-1.2-3.2-3.6-4.4-6.8-3.6c-2,0.5-3.1,1.9-3.7,3.7c-1.7,4.8-3.4,9.6-5.2,14.4
	c-2.4,6.6-4.8,13.2-7,19.9c-0.5,1.4-1.1,1.8-2.6,1.8c-3.9-0.1-7.8,0-11.7,0c-0.6-0.6-0.1-1.1,0.1-1.6c5.6-14.8,11.2-29.5,16.8-44.3
	c0.5-1.3,1.1-1.7,2.4-1.7c5.5,0.1,11,0,16.5,0.1c1.4,0,2.7,0.1,4,0.4c4.5,0.9,7.4,3.6,9.1,7.7c1.5,3.5,2.8,7.1,4.1,10.7
	c3.3,8.7,6.6,17.5,9.8,26.2c0.3,0.7,0.7,1.4,0.6,2.5c-1.1,0-2.1,0-3.1,0c-2.9,0-5.8,0-8.6,0c-2,0-2,0-2.7-1.8
	c-0.5-1.4-1-2.7-1.4-4.1c-1.6-4.6-4.8-7-9.8-6.9c-2.8,0-5.6,0-8.4,0C-508.8,458-509.6,458-510.5,458z"/>
<path class="st2" d="M-501.3,206.6c0.2,0.1,0.4,0.3,0.3,0.6C-501.2,207-501.3,206.8-501.3,206.6z"/>
<path class="st1" d="M42.1,264.1c0.8,0.6,1.9,0.2,2.7,0.2c12,0,23.9,0,35.9,0.1c4.9,0,9.8,0.3,14.6,1.3c8.7,1.7,14.3,6.6,16.2,15.5
	c1.4,6.6,1.5,13.3,0.1,19.9c-2,9.6-8.3,15-17.7,17.1c-4.8,1-9.5,1.5-14.4,1.5c-11.5,0-23,0-34.5,0c-1,0-2.1,0-3,0.1
	C42.1,301.3,42.1,282.7,42.1,264.1z M57.3,297c0,4.1,0,7.3,0,10.7c0,2.1,0,2.2,2.1,2.2c5.7,0,11.3,0,17,0c3.7-0.1,7.4-0.3,10.9-1.6
	c4.7-1.6,7.7-4.7,9-9.4c1.2-4.3,1.3-8.6,0.5-12.9c-1.2-6.5-4.8-10.5-11.2-11.5c-5.9-1-12-1-18-0.1c-5.9,1-9.2,4.7-10.1,10.7
	C57,289.1,57.4,293.4,57.3,297z"/>
<path class="st1" d="M690.6,298.2c-0.6,0.1-0.5,0.7-0.6,1.2c-1.2,9.3-6.3,15.5-15.2,18.3c-4.8,1.5-9.6,2.1-14.5,2.2
	c-12.3,0.1-24.8,0.1-37.1,0.1c-2.4,0-2.4,0-2.4-2.4c0-14.5,0-28.9,0-43.5c0-2.6,0.1-5.2,0-7.8c0-1.4,0.5-1.7,1.7-1.7
	c14.4,0.1,28.8-0.2,43.2,0.3c3,0.1,5.9,0.6,8.8,1.3c9.8,2.3,15,8.7,15.6,18.7c-0.1,1.7-0.1,3.4,0.5,5c0,1.3,0,2.6,0,4
	c0,1.2-1.2,2.2,0,3.4C690.6,297.5,690.6,297.8,690.6,298.2z M635.4,296.5c0,4.3,0,7.8,0,11.4c0,1.9,0,2,2,2c5.7,0,11.3,0,17,0
	c3.5,0,7-0.5,10.5-1.5c5.1-1.5,8.4-4.9,9.6-10.1c0.9-4,1-7.9,0.5-11.9c-1-7.1-5-11-12-12.3c-3.8-0.7-7.6-0.3-11.4-0.5
	c-2,0-3.8,0.1-5.8,0.6c-5.7,1-9,4.4-10,10.1C635,288.6,635.6,292.9,635.4,296.5z"/>
<path class="st1" d="M583.3,296.3c0.1,0.8,0.8,1,1.3,1.5c1.9,1.7,3.4,3.7,4.4,6c2.2,5.1,4.3,10.2,6.4,15.2c-0.6,0.9-1.3,0.7-1.9,0.7
	c-4.3,0-8.6-0.1-12.8,0.1c-1.6,0-2.3-0.6-2.8-2c-1.4-3.7-2.9-7.4-4.4-11.2c-2-4.5-5.3-7-10.3-7c-2.1,0-4.1-0.1-6.2-0.1
	c-2.1,0-4.3,0-6.4,0c-1.2,0-1.7-0.3-1.6-1.5c0.1-2.1,0.1-4.1,0-6.2c0-1.3,0.5-1.5,1.6-1.5c5,0,10,0,15.1,0c1.6,0,3.1-0.1,4.7-0.6
	c4-1.2,5.9-4.3,5.7-8.7c-0.2-3.6-2.8-6.2-6.6-6.7c-0.8-0.1-1.6-0.2-2.4-0.2c-6.3,0-12.4,0-18.7,0c-5.6-0.1-8.6,2.9-8.5,8.6
	c0,11.2,0,22.3,0,33.5c0,0.6,0,1.2,0,1.6c0,2,0,2.1-2,2.1c-4,0-7.8,0-11.7,0c-2,0-2,0-2-2.1c0-8.5,0-17,0-25.3c0-8.6,0-17.1,0-25.7
	c0-2.2,0-2.2,2.1-2.2c16.2,0,32.3,0,48.5,0c2.7,0,5.2,0.3,7.7,1.4c5.8,2.3,9.1,6.6,9.6,12.8C592.5,286.1,590,292.2,583.3,296.3z"/>
<path class="st1" d="M460.5,263.3c6.2,0.2,12.2,0.1,18.1,1.3c9.5,2,14.9,7.1,16.5,16.7c1.4,7.8,1.3,15.7-0.3,23.5
	c-1.6,8.1-6.5,13.1-14.6,14.8c-4.1,0.8-8.3,1-12.4,1.2c-6.9,0.2-13.7,0.2-20.6-0.3c-2.7-0.2-5.3-0.6-7.9-1.3
	c-7.2-1.9-11.3-6.9-12.8-14c-1.7-8.3-1.9-16.6-0.2-24.9c1.7-8.8,7.2-14,15.9-15.7C448.1,263.4,454.4,263.5,460.5,263.3z
	 M460.5,273.4c-3.7,0-7.4,0.1-11,1c-4.8,1.3-7.7,4.3-8.8,9.1c-1.3,5.1-1.2,10.3-0.3,15.5c1,6.2,4.7,9.9,10.9,11
	c6.4,1,12.8,1.2,19.1-0.1c5.6-1.2,9.1-4.5,10.2-10.1c1.2-5.2,1-10.6,0-15.8c-1.2-5.5-4.7-8.7-10.1-9.9
	C467.1,273.5,463.8,273.4,460.5,273.4z"/>
<path class="st1" d="M398.2,281.1c-5,0-9.8,0-14.6,0c-0.6,0-1-0.1-1.3-0.8c-1.7-4.5-5.6-6.2-9.9-6.5c-6.2-0.6-12.4-0.7-18.6,0.3
	c-6.9,1.2-10,4.5-10.9,11.5c-0.6,4.2-0.6,8.4,0,12.4c1,7.7,4.7,11.4,12.4,12.3c5.6,0.7,11.2,0.8,16.7,0.1c4.5-0.6,8.6-1.9,10.6-6.5
	c0.2-0.6,0.7-0.8,1.3-0.8c4.9,0,9.9,0,15,0c-0.7,6.2-2.8,11.2-8.4,14.1c-3.8,2-7.9,2.8-12.1,3.1c-10.9,0.8-21.9,1.2-32.8-0.3
	c-1.9-0.2-3.8-0.8-5.7-1.4c-5.5-1.6-8.8-5.3-10.3-10.7c-0.7-2.4-1.2-4.9-1.4-7.3c-0.6-7.1-0.8-14.1,0.8-21c1.9-8.3,7.1-13,15.2-14.8
	c4.4-0.9,9.1-1.2,13.6-1.3c7.9-0.1,15.8-0.5,23.7,0.6c1.7,0.2,3.5,0.6,5.1,1.2C393.9,267.5,398,272.8,398.2,281.1z"/>
<path class="st1" d="M301.2,303.2c-0.7,6.5-3.1,11.6-9.2,14.4c-3.6,1.6-7.4,2.4-11.3,2.8c-10.9,0.8-21.9,1-32.8-0.3
	c-2.4-0.3-4.8-0.9-7-1.9c-4.2-1.6-7-4.5-8.5-8.7c-1.4-3.6-2-7.3-2.2-11.2c-0.3-6.2-0.5-12.4,0.9-18.6c2-8.5,7.3-13.3,15.7-15
	c4.5-0.9,9.1-1.2,13.6-1.2c7.9-0.1,15.8-0.5,23.7,0.7c2.8,0.3,5.5,1,8,2.3c5.6,2.8,7.8,7.7,8.5,13.5c0.1,0.9-0.3,1.2-1,1.2
	c-4.5,0-9.1,0-13.7,0c-0.6,0-1-0.2-1.3-0.8c-1.7-4.5-5.6-6-9.9-6.4c-6.2-0.6-12.4-0.7-18.6,0.3c-6.7,1.2-9.9,4.7-10.8,11.3
	c-0.6,4.2-0.6,8.4-0.1,12.4c1,7.8,4.5,11.5,12.2,12.4c5.8,0.7,11.7,0.8,17.6,0c4.2-0.6,8-2,9.9-6.2c0.3-0.7,0.7-1,1.4-1
	C291.2,303.2,296.1,303.2,301.2,303.2z"/>
<path class="st1" d="M164.3,304.8c0.6-2.9,1.7-5.3,2.4-7.9c0.3-1,1.2-0.9,2-0.9c3.5,0,6.9,0,10.3,0c0.9,0,1.9,0,2.7,0
	c0.6-0.8,0-1.4-0.1-1.9c-1.9-5.5-3.7-10.9-5.7-16.3c-1.4-3.7-4.2-5.1-7.9-4.2c-2.3,0.6-3.6,2.2-4.3,4.3c-2,5.6-4,11.2-6,16.7
	c-2.8,7.7-5.6,15.3-8.1,23.1c-0.6,1.6-1.3,2.1-3,2.1c-4.5-0.1-9.1,0-13.6,0c-0.7-0.7-0.1-1.3,0.1-1.9c6.5-17.2,13-34.3,19.5-51.5
	c0.6-1.5,1.3-2,2.8-2c6.4,0.1,12.8,0,19.2,0.1c1.6,0,3.1,0.1,4.7,0.5c5.2,1,8.6,4.2,10.6,9c1.7,4.1,3.3,8.3,4.8,12.4
	c3.8,10.1,7.7,20.3,11.4,30.5c0.3,0.8,0.8,1.6,0.7,2.9c-1.3,0-2.4,0-3.6,0c-3.4,0-6.7,0-10,0c-2.3,0-2.3,0-3.1-2.1
	c-0.6-1.6-1.2-3.1-1.6-4.8c-1.9-5.3-5.6-8.1-11.4-8c-3.3,0-6.5,0-9.8,0C166.3,304.8,165.3,304.8,164.3,304.8z"/>
<path class="st3" d="M57.3,297c0.2-3.6-0.2-7.9,0.3-12.1c0.9-6,4.2-9.6,10.1-10.7c6-1,12.1-0.9,18,0.1c6.4,1.2,10,5,11.2,11.5
	c0.8,4.3,0.7,8.7-0.5,12.9c-1.3,4.8-4.4,7.9-9,9.4c-3.6,1.2-7.2,1.5-10.9,1.6c-5.7,0.1-11.3,0-17,0c-2.1,0-2.1,0-2.1-2.2
	C57.3,304.3,57.3,301,57.3,297z"/>
<path class="st3" d="M635.4,296.5c0.2-3.6-0.3-7.9,0.3-12.3c1-5.7,4.3-9,10-10.1c2-0.3,3.8-0.6,5.8-0.6c3.8,0.1,7.6-0.1,11.4,0.5
	c7.1,1.2,10.9,5.2,12,12.3c0.6,4,0.5,7.9-0.5,11.9c-1.3,5.2-4.5,8.5-9.6,10.1c-3.4,1-6.9,1.4-10.5,1.5c-5.7,0.1-11.3,0-17,0
	c-2,0-2,0-2-2C635.4,304.4,635.4,300.8,635.4,296.5z"/>
<path class="st3" d="M460.5,273.4c3.4,0,6.7,0.1,10,0.8c5.5,1.2,9,4.4,10.1,9.9c1,5.2,1.2,10.6,0,15.8c-1.2,5.6-4.5,9-10.2,10.1
	c-6.4,1.3-12.8,1.2-19.1,0.1s-9.9-4.8-10.9-11c-0.9-5.1-0.9-10.3,0.3-15.5c1.2-4.8,4.1-7.8,8.8-9.1
	C453.1,273.6,456.8,273.4,460.5,273.4z"/>
</svg>
