<?xml version="1.0" encoding="UTF-8"?><svg id="Layer_1" xmlns="http://www.w3.org/2000/svg" xmlns:xlink="http://www.w3.org/1999/xlink" viewBox="0 0 135 55.53"><defs><clipPath id="clippath"><rect width="135" height="40" fill="none"/></clipPath><clipPath id="clippath-1"><rect y="0" width="135" height="40" fill="none"/></clipPath></defs><g clip-path="url(#clippath)"><g clip-path="url(#clippath-1)"><path d="M130,40H5c-2.75,0-5-2.25-5-5V5C0,2.25,2.25,0,5,0h125c2.75,0,5,2.25,5,5v30c0,2.75-2.25,5-5,5"/><path d="M130,.8c2.316,0,4.2,1.884,4.2,4.2v30c0,2.316-1.884,4.2-4.2,4.2H5c-2.316,0-4.2-1.884-4.2-4.2V5C.8,2.684,2.684,.8,5,.8h125ZM130,0H5C2.25,0,0,2.25,0,5v30c0,2.75,2.25,5,5,5h125c2.75,0,5-2.25,5-5V5C135,2.25,132.75,0,130,0" fill="#a6a5a5"/><path d="M68.136,21.751c-2.352,0-4.269,1.789-4.269,4.254,0,2.448,1.917,4.253,4.269,4.253s4.269-1.805,4.269-4.253c0-2.465-1.917-4.254-4.269-4.254m0,6.831c-1.289,0-2.401-1.063-2.401-2.577,0-1.531,1.112-2.578,2.401-2.578s2.4,1.047,2.4,2.578c0,1.514-1.111,2.577-2.4,2.577m-9.314-6.831c-2.352,0-4.269,1.789-4.269,4.254,0,2.448,1.917,4.253,4.269,4.253s4.27-1.805,4.27-4.253c0-2.465-1.918-4.254-4.27-4.254m0,6.831c-1.288,0-2.4-1.063-2.4-2.577,0-1.531,1.112-2.578,2.4-2.578s2.401,1.047,2.401,2.578c0,1.514-1.112,2.577-2.401,2.577m-11.078-5.525v1.804h4.317c-.129,1.015-.467,1.756-.982,2.271-.629,.629-1.612,1.321-3.335,1.321-2.659,0-4.737-2.142-4.737-4.801s2.078-4.8,4.737-4.8c1.434,0,2.481,.563,3.254,1.288l1.273-1.272c-1.08-1.031-2.513-1.821-4.527-1.821-3.641,0-6.702,2.965-6.702,6.605s3.061,6.606,6.702,6.606c1.965,0,3.447-.645,4.607-1.853,1.192-1.192,1.563-2.867,1.563-4.221,0-.419-.032-.805-.097-1.127h-6.073Zm45.308,1.401c-.355-.951-1.434-2.707-3.641-2.707-2.191,0-4.011,1.724-4.011,4.254,0,2.384,1.804,4.253,4.22,4.253,1.95,0,3.077-1.192,3.545-1.885l-1.45-.967c-.484,.709-1.144,1.176-2.095,1.176s-1.627-.435-2.062-1.288l5.687-2.353-.193-.483Zm-5.8,1.418c-.048-1.644,1.273-2.481,2.223-2.481,.742,0,1.37,.37,1.579,.902l-3.802,1.579Zm-4.624,4.124h1.869v-12.502h-1.869v12.502Zm-3.061-7.298h-.064c-.419-.499-1.224-.951-2.239-.951-2.127,0-4.076,1.869-4.076,4.27,0,2.384,1.949,4.237,4.076,4.237,1.015,0,1.82-.451,2.239-.967h.064v.612c0,1.628-.869,2.497-2.271,2.497-1.144,0-1.853-.821-2.143-1.514l-1.627,.677c.467,1.128,1.708,2.513,3.77,2.513,2.191,0,4.044-1.289,4.044-4.43v-7.637h-1.773v.693Zm-2.142,5.88c-1.289,0-2.368-1.079-2.368-2.561,0-1.498,1.079-2.594,2.368-2.594,1.273,0,2.271,1.096,2.271,2.594,0,1.482-.998,2.561-2.271,2.561m24.381-11.083h-4.471v12.501h1.865v-4.736h2.606c2.068,0,4.101-1.498,4.101-3.883s-2.033-3.882-4.101-3.882m.048,6.025h-2.654v-4.286h2.654c1.395,0,2.187,1.156,2.187,2.143,0,.969-.792,2.143-2.187,2.143m11.532-1.795c-1.351,0-2.751,.595-3.33,1.913l1.657,.692c.354-.692,1.013-.917,1.705-.917,.965,0,1.946,.579,1.962,1.608v.129c-.338-.193-1.062-.482-1.946-.482-1.785,0-3.603,.981-3.603,2.814,0,1.673,1.464,2.75,3.104,2.75,1.255,0,1.946-.562,2.381-1.222h.064v.965h1.801v-4.793c0-2.219-1.656-3.457-3.795-3.457m-.225,6.851c-.612,0-1.464-.306-1.464-1.062,0-.965,1.061-1.334,1.978-1.334,.82,0,1.206,.177,1.705,.418-.145,1.158-1.142,1.978-2.219,1.978m10.582-6.578l-2.139,5.42h-.064l-2.22-5.42h-2.01l3.329,7.575-1.898,4.214h1.946l5.131-11.789h-2.075Zm-16.807,7.998h1.866v-12.501h-1.866v12.501Z" fill="#fff"/><path d="M20.717,19.424l-10.647,11.3s.001,.005,.002,.007c.327,1.227,1.447,2.13,2.777,2.13,.532,0,1.031-.144,1.459-.396l.034-.02,11.984-6.915-5.609-6.106Z" fill="#e94434"/><path d="M31.488,17.5l-.01-.007-5.174-2.999-5.829,5.187,5.85,5.848,5.146-2.969c.902-.488,1.515-1.439,1.515-2.535,0-1.09-.604-2.036-1.498-2.525" fill="#f8bb15"/><path d="M10.07,9.277c-.064,.236-.098,.484-.098,.74V29.985c0,.256,.034,.504,.099,.739l11.012-11.011L10.07,9.277Z" fill="#547dbe"/><path d="M20.796,20.001l5.51-5.509L14.336,7.552c-.435-.261-.943-.411-1.486-.411-1.33,0-2.452,.905-2.779,2.133,0,.001-.001,.002-.001,.003l10.726,10.724Z" fill="#32a851"/></g><g><path d="M43.054,12.838c-.493-.29-.88-.683-1.161-1.179-.281-.496-.422-1.042-.422-1.64s.141-1.144,.422-1.64c.281-.496,.668-.889,1.161-1.179,.493-.29,1.041-.435,1.644-.435s1.15,.145,1.64,.435c.49,.29,.876,.683,1.157,1.179,.281,.496,.422,1.043,.422,1.64s-.141,1.144-.422,1.64c-.281,.496-.667,.889-1.157,1.179-.49,.29-1.037,.435-1.64,.435s-1.151-.145-1.644-.435Zm2.788-.77c.345-.2,.618-.479,.818-.835,.2-.357,.3-.761,.3-1.214s-.1-.857-.3-1.214c-.2-.357-.473-.635-.818-.835-.345-.2-.727-.3-1.144-.3s-.799,.1-1.144,.3c-.345,.2-.618,.479-.818,.835-.2,.357-.3,.761-.3,1.214s.1,.857,.3,1.214c.2,.357,.473,.635,.818,.835,.345,.2,.727,.3,1.144,.3s.799-.1,1.144-.3Z" fill="#fff"/><path d="M49.162,6.905h2.332c.331,0,.638,.072,.922,.217,.284,.145,.509,.344,.674,.596,.165,.252,.248,.532,.248,.839s-.077,.576-.231,.805c-.154,.229-.358,.404-.613,.526v.043c.325,.11,.583,.293,.774,.548,.191,.255,.287,.557,.287,.905,0,.342-.088,.645-.265,.909-.177,.264-.415,.47-.713,.618-.299,.148-.625,.222-.979,.222h-2.436V6.905Zm2.288,2.619c.29,0,.522-.088,.696-.265,.174-.177,.261-.381,.261-.613s-.086-.433-.257-.605c-.171-.171-.393-.257-.666-.257h-1.366v1.74h1.331Zm.148,2.723c.301,0,.544-.091,.726-.274s.274-.402,.274-.657-.094-.476-.283-.661c-.189-.186-.439-.278-.753-.278h-1.444v1.871h1.479Z" fill="#fff"/><path d="M55.948,7.809h-1.749v-.905h4.446v.905h-1.74v5.324h-.957V7.809Z" fill="#fff"/><path d="M59.636,6.905h3.776v.905h-2.819v1.758h2.54v.905h-2.54v1.757h2.819v.905h-3.776V6.905Z" fill="#fff"/><path d="M64.752,6.905h2.184c.377,0,.718,.081,1.022,.243,.304,.162,.545,.389,.722,.679,.177,.29,.265,.618,.265,.983,0,.418-.135,.787-.404,1.109-.27,.322-.608,.538-1.014,.648l-.009,.043,1.714,2.471v.052h-1.105l-1.662-2.445h-.757v2.445h-.957V6.905Zm2.158,2.906c.302,0,.555-.096,.761-.287,.206-.191,.309-.432,.309-.722,0-.267-.094-.5-.283-.7-.188-.2-.439-.3-.752-.3h-1.236v2.01h1.201Z" fill="#fff"/><path d="M72.086,6.905h1.131l2.819,4.576h.052l-.052-1.201v-3.375h.948v6.229h-.992l-2.958-4.811h-.052l.052,1.201v3.611h-.948V6.905Z" fill="#fff"/><path d="M79.82,12.838c-.493-.29-.88-.683-1.161-1.179-.281-.496-.422-1.042-.422-1.64s.141-1.144,.422-1.64c.281-.496,.668-.889,1.161-1.179,.493-.29,1.041-.435,1.644-.435s1.15,.145,1.64,.435c.49,.29,.876,.683,1.157,1.179,.281,.496,.422,1.043,.422,1.64s-.141,1.144-.422,1.64c-.281,.496-.667,.889-1.157,1.179-.49,.29-1.037,.435-1.64,.435s-1.151-.145-1.644-.435Zm2.788-.77c.345-.2,.618-.479,.818-.835,.2-.357,.3-.761,.3-1.214s-.1-.857-.3-1.214c-.2-.357-.473-.635-.818-.835-.345-.2-.727-.3-1.144-.3s-.799,.1-1.144,.3c-.345,.2-.618,.479-.818,.835-.2,.357-.3,.761-.3,1.214s.1,.857,.3,1.214c.2,.357,.473,.635,.818,.835,.345,.2,.727,.3,1.144,.3s.799-.1,1.144-.3Z" fill="#fff"/></g></g><g><path d="M40.138,51.833h-3.375v2.285h3.961v1.412h-5.719v-8.531h5.707v1.424h-3.949v2.033h3.375v1.377Z" fill="#fff"/><path d="M45.253,46.999l2.191,6.188,2.18-6.188h2.309v8.531h-1.764v-2.332l.176-4.025-2.303,6.357h-1.207l-2.297-6.352,.176,4.02v2.332h-1.758v-8.531h2.297Z" fill="#fff"/><path d="M58.855,55.53v-8.531h2.988c1.035,0,1.82,.198,2.355,.595s.803,.978,.803,1.743c0,.418-.107,.786-.322,1.104s-.514,.552-.896,.7c.438,.109,.783,.33,1.035,.662s.377,.738,.377,1.219c0,.82-.262,1.441-.785,1.863s-1.27,.637-2.238,.645h-3.316Zm1.758-4.957h1.301c.887-.016,1.33-.369,1.33-1.061,0-.387-.111-.665-.336-.835s-.58-.255-1.064-.255h-1.23v2.15Zm0,1.242v2.303h1.506c.414,0,.738-.099,.971-.296s.348-.47,.348-.817c0-.781-.404-1.178-1.213-1.189h-1.611Z" fill="#fff"/><path d="M70.872,52.407h-1.4v3.123h-1.758v-8.531h3.17c1.008,0,1.785,.225,2.332,.674s.82,1.084,.82,1.904c0,.582-.127,1.067-.379,1.456s-.633,.698-1.145,.929l1.846,3.486v.082h-1.887l-1.6-3.123Zm-1.4-1.424h1.418c.441,0,.783-.112,1.025-.337s.363-.534,.363-.929c0-.402-.115-.719-.344-.949s-.578-.346-1.051-.346h-1.412v2.561Z" fill="#fff"/><path d="M81.704,51.833h-3.375v2.285h3.961v1.412h-5.719v-8.531h5.707v1.424h-3.949v2.033h3.375v1.377Z" fill="#fff"/><path d="M87.675,53.415l1.934-6.416h1.957l-2.971,8.531h-1.834l-2.959-8.531h1.951l1.922,6.416Z" fill="#fff"/><path d="M98.7,51.833h-3.375v2.285h3.961v1.412h-5.719v-8.531h5.707v1.424h-3.949v2.033h3.375v1.377Z" fill="#fff"/></g></svg>