<?xml version="1.0" encoding="UTF-8"?><svg id="Layer_1" xmlns="http://www.w3.org/2000/svg" viewBox="0 0 134.639 30.518"><g><path d="M43.884,9.732c-1.511,0-2.547-.924-2.547-2.323,0-1.371,1.035-2.323,2.547-2.323s2.547,.952,2.547,2.323c0,1.399-1.035,2.323-2.547,2.323Zm-2.239,15.392V11.327h4.478v13.797h-4.478Z" fill="#fff"/><path d="M55.61,25.432c-3.778,0-7.276-2.575-7.276-7.164,0-4.618,3.554-7.192,7.332-7.192,3.526,0,5.121,1.455,5.121,1.455l-.98,3.386c-.392-.308-1.623-1.231-3.554-1.231-1.903,0-3.414,1.315-3.414,3.498s1.371,3.554,3.47,3.554,3.498-1.343,3.498-1.343l1.063,3.386c-.14,.112-1.595,1.651-5.261,1.651Z" fill="#fff"/><path d="M71.785,25.124v-7.248c0-1.679-.224-3.134-2.099-3.134s-2.463,1.567-2.463,3.61v6.773h-4.478V5.814h4.478v4.59c0,1.399-.028,2.911-.028,2.911,.7-1.231,2.015-2.239,4.058-2.239,4.002,0,5.037,2.547,5.037,5.905v8.144h-4.506Z" fill="#fff"/><path d="M85.973,25.432c-4.366,0-7.668-2.715-7.668-7.164s3.302-7.192,7.668-7.192,7.64,2.743,7.64,7.192-3.274,7.164-7.64,7.164Zm0-10.831c-1.987,0-3.134,1.539-3.134,3.582s1.147,3.582,3.134,3.582c1.959,0,3.134-1.539,3.134-3.582s-1.175-3.582-3.134-3.582Z" fill="#fff"/><path d="M104.863,15.441h-.196c-.252-.14-.84-.336-1.623-.336-2.211,0-2.771,2.071-2.771,3.89v6.129h-4.478V11.327h4.478l-.028,1.959h.056c.784-1.511,1.931-2.211,3.414-2.211,.924,0,1.399,.252,1.399,.252l-.252,4.114Z" fill="#fff"/><path d="M116.785,25.124l.028-1.819-.084,.028c-1.035,1.399-2.687,2.099-4.534,2.099-4.002,0-6.521-3.134-6.521-7.192s2.519-7.164,6.521-7.164c2.519,0,3.918,1.259,4.366,1.931V5.814h4.478V25.124h-4.254Zm-3.302-10.523c-1.931,0-3.246,1.455-3.246,3.582s1.315,3.582,3.246,3.582,3.218-1.455,3.218-3.582-1.287-3.582-3.218-3.582Z" fill="#fff"/><path d="M128.79,25.432c-2.071,0-4.254-.644-5.821-2.127l1.679-2.659c1.119,.952,2.966,1.679,4.086,1.679s1.903-.28,1.903-1.175-2.015-1.343-2.519-1.511c-2.295-.588-4.31-1.399-4.31-4.254,0-2.687,2.351-4.338,5.233-4.338s4.506,1.063,5.289,1.707l-1.455,2.631c-.784-.616-2.351-1.343-3.47-1.343-1.063,0-1.651,.28-1.651,1.008s1.063,1.063,2.015,1.343c2.379,.7,4.87,1.427,4.87,4.478,0,3.302-2.994,4.562-5.849,4.562Z" fill="#fff"/></g><g><path d="M36.204,15.259c0,.465-.111,.943-.316,1.429-.319-1.184-1.138-1.866-1.138-1.866-1.481-1.276-3.555-1.491-5.16-.688-1.287,.647-2.696,1.293-3.981,1.917-.211,.102-.429,.185-.652,.253-1.597,.486-3.462,.089-4.766-1.214C15.422,10.324,8.429,8.521,1.941,10.386c0,0-.646,.16-1.586,.529C.916,7.581,2.311,3.619,5.692,1.492,9.38-.829,14.516-.441,20.957,2.646c1.56,.747,15.247,7.452,15.247,12.614Z" fill="#0098ff"/><path d="M34.75,14.822s.819,.682,1.138,1.866c-2.055,4.893-13.511,10.505-14.931,11.185-1.298,.623-2.545,1.135-3.737,1.538,.055-.815,.022-1.563,.022-1.563-.183-5.505-4.645-9.817-10.159-9.817-1.86,0-3.679,.506-5.261,1.465,0,0-.612,.37-1.299,.998-.435-2.081-.523-4.009-.523-5.234,0-1.047,.065-2.611,.355-4.344,.94-.369,1.586-.529,1.586-.529,6.488-1.865,13.481-.063,18.25,4.703,1.304,1.303,3.169,1.7,4.766,1.214,.223-.068,.441-.15,.652-.253,1.285-.625,2.694-1.27,3.981-1.917,1.604-.803,3.679-.588,5.16,.688Z" fill="#0068ff"/><path d="M17.242,27.848s.032,.748-.022,1.563c-2.183,.738-4.185,1.107-5.997,1.107-2.103,0-3.95-.497-5.531-1.491-3.084-1.94-4.516-5.409-5.169-8.534,.687-.628,1.299-.998,1.299-.998,1.582-.958,3.401-1.465,5.261-1.465,5.514,0,9.977,4.312,10.159,9.817Z" fill="#0049bf"/></g></svg>