<?xml version="1.0" encoding="utf-8"?>
<!-- Generator: Adobe Illustrator 26.5.0, SVG Export Plug-In . SVG Version: 6.00 Build 0)  -->
<svg version="1.1" id="Layer_1" xmlns="http://www.w3.org/2000/svg" xmlns:xlink="http://www.w3.org/1999/xlink" x="0px" y="0px"
	 viewBox="0 0 490 425" style="enable-background:new 0 0 490 425;" xml:space="preserve">
<style type="text/css">
	.st0{fill:#0098FF;}
	.st1{fill:#0068FF;}
	.st2{fill:#0049BF;}
</style>
<g>
	<path class="st0" d="M487,212.5c-0.1,6.6-1.6,13.1-4.2,19.1c-2.6-9.6-7.9-18.3-15.2-25c-19.8-17.1-47.5-19.9-69-9.2
		c-17.2,8.6-36,17.3-53.2,25.6c-2.8,1.4-5.7,2.5-8.7,3.4c-22.6,6.7-47.1,0.5-63.7-16.2C209,146.5,115.7,122.4,29,147.3
		c-7.2,1.9-14.3,4.3-21.2,7.1c7.4-44.6,26.1-97.5,71.3-125.9c49.3-31,118-25.8,204.1,15.4C304,53.8,487,143.5,487,212.5z"/>
	<path class="st1" d="M467.6,206.6c7.3,6.7,12.6,15.4,15.2,25C455.3,297,302.2,372.1,283.2,381.2c-16.2,7.9-32.9,14.7-50,20.6
		c0.7-10.9,0.3-20.9,0.3-20.9c-2.6-75.1-65.6-133.8-140.7-131.2c-23.1,0.8-45.6,7.5-65.4,19.4c-6.2,3.9-12,8.4-17.4,13.4
		c-4.7-23-7-46.5-7-70c0-19.5,1.6-38.9,4.8-58.1c6.9-2.8,14-5.1,21.2-7.1c86.7-24.9,180.1-0.9,244,62.9
		c16.6,16.7,41.1,22.9,63.7,16.3c3-0.9,5.9-2,8.7-3.4c17.2-8.4,36-17,53.2-25.6C420.1,186.7,447.8,189.6,467.6,206.6z"/>
	<path class="st2" d="M233.5,380.8c0,0,0.4,10-0.3,20.9c-29.2,9.9-55.9,14.8-80.2,14.8c-28.1,0-52.8-6.6-74-19.9
		C37.9,370.6,18.7,324.2,10,282.5c5.4-4.9,11.2-9.4,17.4-13.3c64.3-38.8,147.9-18.1,186.7,46.2C226,335.2,232.7,357.7,233.5,380.8z"
		/>
</g>
</svg>
