<?xml version="1.0" encoding="UTF-8"?><svg id="Layer_1" xmlns="http://www.w3.org/2000/svg" viewBox="0 0 26.453 25.719"><path d="M0,8.487v8.818H5.878l7.348,7.348V1.139l-7.348,7.348H0Zm11.022-1.764v12.382l-4.152-4.005H2.204v-4.409H6.871l4.152-3.968Z" fill="#fff"/><path d="M23.588,4.611C21.677,2.223,19.203,.686,16.166,0V2.278c2.4,.661,4.348,1.972,5.842,3.931,1.494,1.959,2.241,4.176,2.241,6.65s-.753,4.685-2.26,6.632c-1.506,1.947-3.448,3.264-5.823,3.95v2.278c3.037-.686,5.511-2.223,7.422-4.611,1.91-2.388,2.866-5.138,2.866-8.248s-.955-5.86-2.866-8.248Z" fill="#fff"/><path d="M18.628,16.717c.808-1.151,1.213-2.425,1.213-3.821,0-1.421-.398-2.707-1.194-3.858-.796-1.151-1.868-1.935-3.215-2.351v12.382c1.323-.416,2.388-1.2,3.196-2.351Z" fill="#fff"/></svg>