<?xml version="1.0" encoding="UTF-8"?><svg id="Layer_1" xmlns="http://www.w3.org/2000/svg" viewBox="0 0 29.65 29.65"><path d="M22.1,15.156c.061-.355,.092-.716,.092-1.084,0-1.274-.324-2.449-.974-3.527-.649-1.078-1.549-1.886-2.701-2.425v4.776l3.307,3.307c.122-.343,.214-.692,.276-1.047Z" fill="#fff"/><path d="M24.396,7.256c1.47,1.996,2.204,4.256,2.204,6.779,0,.98-.116,1.935-.349,2.866-.233,.931-.594,1.813-1.084,2.646l1.58,1.58c.686-1.078,1.2-2.217,1.543-3.417,.343-1.2,.514-2.425,.514-3.674,0-3.111-.955-5.86-2.866-8.248-1.91-2.388-4.384-3.925-7.422-4.611V3.454c2.449,.539,4.409,1.807,5.879,3.803Z" fill="#fff"/><polygon points="15.578 2.315 11.757 6.136 15.578 9.957 15.578 2.315" fill="#fff"/><path d="M1.58,0L0,1.58,8.083,9.663H2.351v8.818h5.879l7.348,7.348v-8.708l6.062,6.099c-.465,.343-.961,.618-1.488,.827-.527,.208-1.072,.398-1.635,.569v2.278c.857-.196,1.684-.471,2.48-.827,.796-.355,1.537-.778,2.223-1.268l4.85,4.85,1.58-1.617L1.58,0ZM13.374,20.465l-4.188-4.188H4.556v-4.409h5.731l3.086,3.086v5.511Z" fill="#fff"/></svg>