<?xml version="1.0" encoding="UTF-8"?><svg id="Layer_1" xmlns="http://www.w3.org/2000/svg" viewBox="0 0 22.831 18.543"><path id="Twitter" d="M22.831,2.197c-.855,.378-1.762,.627-2.69,.738,.979-.586,1.71-1.509,2.059-2.595-.92,.546-1.926,.93-2.975,1.136-1.773-1.886-4.738-1.977-6.624-.204-.939,.883-1.473,2.115-1.476,3.404,0,.359,.041,.718,.122,1.068C7.48,5.557,3.97,3.78,1.59,.854,.347,2.994,.982,5.731,3.04,7.106c-.744-.023-1.471-.224-2.121-.586v.06c0,2.229,1.572,4.149,3.757,4.591-.402,.109-.817,.165-1.234,.164-.296,0-.591-.028-.881-.085,.614,1.908,2.372,3.215,4.376,3.253-1.661,1.3-3.71,2.004-5.819,2-.374,.002-.747-.018-1.118-.06,2.142,1.375,4.635,2.104,7.18,2.1,7.309,.051,13.276-5.833,13.327-13.142,0-.059,0-.118,0-.178,0-.2-.005-.4-.013-.606,.916-.662,1.708-1.481,2.337-2.42Z" fill="#fff" opacity=".8"/></svg>