<?xml version="1.0" encoding="UTF-8"?><svg id="Layer_1" xmlns="http://www.w3.org/2000/svg" viewBox="0 0 25.684 19.977"><path id="Youtube" d="M12.842,19.977h0c-.067,0-6.711-.048-8.724-.272-.108-.026-.24-.045-.393-.066-.934-.054-1.809-.47-2.442-1.159-.543-.852-.89-1.814-1.017-2.816-.166-1.523-.255-3.054-.266-4.586v-2.134c0-2.285,.263-4.608,.266-4.631,.105-1.007,.455-1.972,1.018-2.813C1.919,.784,2.82,.36,3.776,.325h.005l.072-.007C7.4,.049,12.788,0,12.842,0s5.445,.049,8.99,.318l.122,.01c.947,.018,1.839,.446,2.446,1.172,.543,.852,.891,1.813,1.018,2.815,0,.023,.266,2.345,.266,4.631v2.134c0,2.24-.263,4.562-.266,4.585-.127,1.002-.475,1.963-1.018,2.814-.635,.715-1.535,1.139-2.491,1.173h-.009l-.072,.006c-3.542,.315-8.928,.319-8.986,.319Zm-3.1-14.577V15.253l8.414-4.813L9.742,5.4Z" fill="#fff" opacity=".8"/></svg>